<?xml version="1.0" encoding="UTF-8" standalone="no"?>
<!-- Created with Inkscape (http://www.inkscape.org/) -->

<svg
   xmlns:dc="http://purl.org/dc/elements/1.1/"
   xmlns:cc="http://creativecommons.org/ns#"
   xmlns:rdf="http://www.w3.org/1999/02/22-rdf-syntax-ns#"
   xmlns:svg="http://www.w3.org/2000/svg"
   xmlns="http://www.w3.org/2000/svg"
   xmlns:xlink="http://www.w3.org/1999/xlink"
   xmlns:sodipodi="http://sodipodi.sourceforge.net/DTD/sodipodi-0.dtd"
   xmlns:inkscape="http://www.inkscape.org/namespaces/inkscape"
   width="64px"
   height="64px"
   id="svg2869"
   sodipodi:version="0.32"
   inkscape:version="0.92.2 2405546, 2018-03-11"
   sodipodi:docname="Arc3Point.svg"
   inkscape:output_extension="org.inkscape.output.svg.inkscape"
   version="1.1">
  <defs
     id="defs2871">
    <radialGradient
       inkscape:collect="always"
       xlink:href="#linearGradient3144"
       id="radialGradient2378"
       gradientUnits="userSpaceOnUse"
       gradientTransform="matrix(1,0,0,0.6985294,0,202.82863)"
       cx="225.26402"
       cy="672.79736"
       fx="225.26402"
       fy="672.79736"
       r="34.345188" />
    <radialGradient
       inkscape:collect="always"
       xlink:href="#linearGradient3144"
       id="radialGradient2368"
       gradientUnits="userSpaceOnUse"
       gradientTransform="matrix(1,0,0,0.6985294,0,202.82863)"
       cx="225.26402"
       cy="672.79736"
       fx="225.26402"
       fy="672.79736"
       r="34.345188" />
    <linearGradient
       inkscape:collect="always"
       id="linearGradient3144">
      <stop
         style="stop-color:#ffffff;stop-opacity:1;"
         offset="0"
         id="stop3146" />
      <stop
         style="stop-color:#ffffff;stop-opacity:0;"
         offset="1"
         id="stop3148" />
    </linearGradient>
    <inkscape:perspective
       sodipodi:type="inkscape:persp3d"
       inkscape:vp_x="0 : 32 : 1"
       inkscape:vp_y="0 : 1000 : 0"
       inkscape:vp_z="64 : 32 : 1"
       inkscape:persp3d-origin="32 : 21.333333 : 1"
       id="perspective2877" />
    <linearGradient
       id="linearGradient3836">
      <stop
         style="stop-color:#c4a000;stop-opacity:1;"
         offset="0"
         id="stop3838" />
      <stop
         style="stop-color:#fce94f;stop-opacity:1;"
         offset="1"
         id="stop3840" />
    </linearGradient>
    <linearGradient
       id="linearGradient3836-9">
      <stop
         style="stop-color:#c4a000;stop-opacity:1;"
         offset="0"
         id="stop3838-8" />
      <stop
         style="stop-color:#fce94f;stop-opacity:1;"
         offset="1"
         id="stop3840-1" />
    </linearGradient>
    <linearGradient
       id="linearGradient3836-0">
      <stop
         style="stop-color:#c4a000;stop-opacity:1;"
         offset="0"
         id="stop3838-2" />
      <stop
         style="stop-color:#fce94f;stop-opacity:1;"
         offset="1"
         id="stop3840-5" />
    </linearGradient>
  </defs>
  <sodipodi:namedview
     id="base"
     pagecolor="#ffffff"
     bordercolor="#666666"
     borderopacity="1.0"
     inkscape:pageopacity="0.0"
     inkscape:pageshadow="2"
     inkscape:zoom="6.8389122"
     inkscape:cx="44.639456"
     inkscape:cy="33.505621"
     inkscape:current-layer="layer1"
     showgrid="true"
     inkscape:document-units="px"
     inkscape:grid-bbox="true"
     inkscape:window-width="1920"
     inkscape:window-height="1002"
     inkscape:window-x="0"
     inkscape:window-y="0"
     inkscape:snap-bbox="true"
     inkscape:snap-nodes="true"
     inkscape:window-maximized="1">
    <inkscape:grid
       type="xygrid"
       id="grid3002"
       units="px"
       empspacing="2"
       visible="true"
       enabled="true"
       snapvisiblegridlinesonly="true"
       spacingx="1"
       spacingy="1"
       originx="0"
       originy="0" />
  </sodipodi:namedview>
  <g
     id="layer1"
     inkscape:label="Layer 1"
     inkscape:groupmode="layer">
    <g
       id="g231"
       transform="matrix(0.275625,0,0,0.275625,-26.98375,25.119719)">
      <path
         style="fill:#afafaf"
         d="m 107,132.5 c 0,-2.11111 0.46667,-2.5 3,-2.5 2.53333,0 3,0.38889 3,2.5 0,2.11111 -0.46667,2.5 -3,2.5 -2.53333,0 -3,-0.38889 -3,-2.5 z m 10,0 c 0,-2.11111 0.46667,-2.5 3,-2.5 2.53333,0 3,0.38889 3,2.5 0,2.11111 -0.46667,2.5 -3,2.5 -2.53333,0 -3,-0.38889 -3,-2.5 z m 10,0 V 130 h 87 87 v 2.5 2.5 h -87 -87 z m 178,0 c 0,-2.11111 0.46667,-2.5 3,-2.5 2.53333,0 3,0.38889 3,2.5 0,2.11111 -0.46667,2.5 -3,2.5 -2.53333,0 -3,-0.38889 -3,-2.5 z m 10,0 c 0,-2.11111 0.46667,-2.5 3,-2.5 2.53333,0 3,0.38889 3,2.5 0,2.11111 -0.46667,2.5 -3,2.5 -2.53333,0 -3,-0.38889 -3,-2.5 z m -193.03168,-49.75 -0.0317,-37.25 -2.05173,2.75 c -2.2451,3.00919 -4.04876,3.46242 -5.72779,1.43931 -0.82428,-0.99319 0.24033,-3.2944 4.39501,-9.5 5.53265,-8.26379 6.06456,-8.7552 8.03578,-7.424 C 128.20825,33.85956 137,47.29077 137,48.67194 c 0,1.83057 -4.14982,2.80464 -5.07805,1.19195 -3.92073,-6.81185 -3.85667,-7.34514 -3.89015,32.38611 L 128,120 h -3 -3 z m 18.69835,36.58333 C 140.3,118.96667 140,104.79167 140,87.83333 V 57 h 3 3 v 29 29 h 33.45132 33.45132 l -0.59104,-8.37522 c -0.32508,-4.60637 -0.28939,-9.57715 0.0793,-11.04619 0.65267,-2.60045 0.82137,-2.65512 6.38972,-2.07055 4.7166,0.49516 6.29144,0.24146 8.98227,-1.44696 7.32735,-4.59771 8.03266,-13.39935 1.53119,-19.10772 -3.41064,-2.99458 -4.0107,-3.16616 -9.37259,-2.67996 -3.51168,0.31843 -6.15297,0.0951 -6.82508,-0.57697 C 212.48861,69.08861 212,65.12399 212,60.8 V 53 h -6.5 -6.5 v 4.04966 C 199,66.10693 190.85098,74 181.5,74 172.14902,74 164,66.10693 164,57.04966 V 53 H 152 140 V 35.74706 18.49411 L 176.93784,-8.252944 C 197.25365,-22.963825 214.48769,-35 215.2357,-35 c 0.74802,0 17.98849,12.043354 38.31216,26.763009 L 290.5,18.52602 290.78078,30.76301 291.06156,43 H 288.03078 285 V 32.20324 21.40648 L 251.75,-2.68943 218.5,-26.785329 218,-13.142665 217.5,0.5 211.36724,0.16369 C 201.71256,-0.36575 196,3.8178 196,11.41776 c 0,8.52777 5.39667,12.92137 15.24123,12.40838 L 217.5,23.5 217.78174,35.25 218.06347,47 H 227.03174 236 V 42.45034 C 236,32.8433 243.91279,25 253.60494,25 c 3.8453,0 9.96285,2.75633 12.60692,5.68019 C 268.75625,33.49382 271,39.46923 271,43.43167 v 3.49591 l 9.75,0.28621 9.75,0.28621 0.27914,34 c 0.15353,18.7 0.0325,35.0125 -0.26905,36.25 L 289.9619,120 h -74.31429 c -40.87285,0 -74.61428,-0.3 -74.98094,-0.66667 z m 157.5171,-7.44718 c -5.00037,-7.58941 -5.20832,-8.15061 -3.5,-9.44568 2.56971,-1.94807 2.98219,-1.81474 5.00969,1.61937 1.77001,2.99796 1.81665,2.30539 2.30654,-34.25 L 302.5,32.5 l 2.75,-0.31642 2.75,-0.31642 0.0169,38.31642 0.0168,38.31642 2.16832,-3.5 c 1.19257,-1.925 2.27145,-3.64896 2.39751,-3.83102 0.46381,-0.66989 4.40048,1.93462 4.40048,2.91136 0,2.24144 -10.13544,15.91868 -11.78047,15.89714 -1.03199,-0.0135 -3.8452,-3.2488 -7.03576,-8.09133 z M 260.52317,-9.982612 c -24.73726,-18.620274 -45.43726,-33.577816 -46,-33.238982 -0.56274,0.338834 -20.7054,15.377307 -44.76145,33.418828 C 145.70566,8.23876 125.59707,23 125.07595,23 123.7493,23 111.77156,8.17518 112.1722,7.02905 c 0.18029,-0.51576 23.45524,-18.284496 51.72212,-39.486072 32.94171,-24.707938 51.7913,-38.23942 52.5,-37.687968 0.60812,0.473194 23.83068,17.865187 51.60568,38.648873 27.775,20.783687 50.66441,37.924637 50.86535,38.091007 0.29391,0.24333 -12.96722,17.56422 -13.27677,17.34133 -0.0487,-0.0351 -20.32815,-15.29856 -45.06541,-33.918832 z M 256,-54.069239 c -17.875,-13.215079 -33.10911,-24.387141 -33.85358,-24.826805 -1.1347,-0.670125 -1.13622,-1.147419 -0.009,-2.951672 C 222.87624,-83.031472 223.79979,-84 224.18931,-84 c 0.38951,0 14.47436,10.125 31.29966,22.5 16.8253,12.375 30.77249,22.5 30.99375,22.5 0.22126,0 0.54066,-1.9125 0.70978,-4.25 0.27632,-3.819099 0.59037,-4.282473 3.09746,-4.570278 l 2.78996,-0.320278 -0.28996,8.820278 c -0.26189,7.966309 -0.4836,8.842458 -2.28996,9.049366 -1.26611,0.145026 -13.92569,-8.587638 -34.5,-23.798327 z m -116.06244,20.952574 c -0.87668,-1.6381 -0.82811,-2.400949 0.21482,-3.374038 0.74119,-0.691555 13.88412,-10.764056 29.20651,-22.383335 L 197.21778,-80 h -5.10889 C 187.30727,-80 187,-80.152466 187,-82.534983 v -2.534983 l 10.25,0.284983 c 9.34846,0.259917 10.25,0.454155 10.25,2.208367 0,1.350508 -9.68006,9.297886 -32.5,26.682677 -17.875,13.617612 -32.82167,24.789589 -33.21482,24.826616 -0.39315,0.03703 -1.22458,-0.885176 -1.84762,-2.049342 z"
         id="path245"
         inkscape:connector-curvature="0" />
      <path
         style="fill:#fda346"
         d="m 108,132.5 c 0,-2 0.5,-2.5 2.5,-2.5 2,0 2.5,0.5 2.5,2.5 0,2 -0.5,2.5 -2.5,2.5 -2,0 -2.5,-0.5 -2.5,-2.5 z m 10,0 c 0,-2 0.5,-2.5 2.5,-2.5 2,0 2.5,0.5 2.5,2.5 0,2 -0.5,2.5 -2.5,2.5 -2,0 -2.5,-0.5 -2.5,-2.5 z m 10,0 V 130 h 86 86 v 2.5 2.5 h -86 -86 z m 177,0 c 0,-2 0.5,-2.5 2.5,-2.5 2,0 2.5,0.5 2.5,2.5 0,2 -0.5,2.5 -2.5,2.5 -2,0 -2.5,-0.5 -2.5,-2.5 z m 10,0 c 0,-2 0.5,-2.5 2.5,-2.5 2,0 2.5,0.5 2.5,2.5 0,2 -0.5,2.5 -2.5,2.5 -2,0 -2.5,-0.5 -2.5,-2.5 z M 122.94755,81.75 c -0.0454,-33.13059 -0.24037,-37.98232 -1.45645,-36.25 -4.11892,5.86742 -4.04151,5.81098 -6.30707,4.59849 -2.12145,-1.13536 -2.06979,-1.28809 3.07916,-9.10409 3.13644,-4.76105 5.92647,-7.95839 6.95634,-7.97188 1.03764,-0.0136 3.74282,2.97588 6.82171,7.5386 4.12092,6.10694 4.87253,7.83785 3.90803,9 -1.78936,2.15605 -2.63258,1.79883 -5.41322,-2.29325 L 128,43.53573 V 81.76787 120 h -2.5 -2.5 l -0.0524,-38.25 z m 17.50828,36.99549 c -0.26748,-0.69704 -0.36697,-14.76243 -0.22108,-31.25642 L 140.5,57.5 142.75,57.18045 145,56.8609 V 85.93045 115 h 33.96617 33.96617 l 0.28383,-10.75 0.28383,-10.75 5.68874,0.34272 c 6.50752,0.39205 10.53012,-1.40392 13.17572,-5.88255 5.44794,-9.22263 -3.94103,-21.2352 -14.00208,-17.91475 -1.82781,0.60323 -3.78208,0.81323 -4.34283,0.46666 C 213.45711,70.16447 213,66.09752 213,61.44098 V 53 h -7 -7 v 3.28811 c 0,1.80846 -1.0125,5.29233 -2.25,7.74193 -5.10164,10.09857 -17.33673,12.80248 -26.24023,5.79898 C 167.1656,67.1985 164.05191,60.68152 164.02196,56.25 L 164,53 157.25,52.78833 c -3.7125,-0.11641 -9,-0.22891 -11.75,-0.25 l -5,-0.0383 V 35.51527 18.53052 L 177.45214,-8.234727 C 197.77581,-22.955641 214.79128,-35 215.2643,-35 c 0.47301,0 17.48205,12.036175 37.79786,26.747056 L 290,18.49411 v 12.3225 c 0,12.2069 -0.0211,12.31949 -2.25,12.00294 -2.14041,-0.30399 -2.27435,-0.85159 -2.75,-11.24337 l -0.5,-10.92381 -32.90965,-23.8332 c -18.10032,-13.108255 -33.10687,-23.635979 -33.34791,-23.39494 -0.24104,0.241039 -0.38029,6.027555 -0.30945,12.858924 0.14673,14.149436 -0.35969,15.315246 -5.95568,13.710336 -9.45064,-2.7104 -18.98224,6.40149 -16.0357,15.32959 0.61404,1.86055 2.26585,4.46149 3.67069,5.77987 2.21557,2.07921 3.50452,2.39173 9.72097,2.35693 3.9417,-0.0221 7.49734,0.42793 7.90142,1 0.40408,0.57207 0.74158,5.87762 0.75,11.79012 L 218,47 h 9 9 v -4.03984 c 0,-10.6277 10.28741,-19.44203 20.4632,-17.53304 7.25241,1.36056 15.57725,12.34981 14.32358,18.90793 -0.44131,2.30859 -0.1879,2.42508 6.4939,2.98526 3.82422,0.32061 8.2562,0.32231 9.84883,0.004 l 2.89571,-0.57914 -0.26261,36.37752 L 289.5,119.5 l -74.27892,0.25641 c -59.2304,0.20447 -74.37745,-3.4e-4 -74.76525,-1.01092 z m 158.57464,-6.20033 C 296.26371,108.445 294,104.64236 294,104.09485 c 0,-0.54751 0.773,-1.42806 1.71779,-1.95679 1.37804,-0.77119 2.21861,-0.23712 4.25,2.70031 L 302.5,108.5 l 0.26195,-38.31799 0.26194,-38.31798 2.23806,0.31798 L 307.5,32.5 l 0.5,38 0.5,38 2.35393,-3.78619 c 2.02207,-3.25242 2.58599,-3.60951 4,-2.53297 0.90534,0.68927 1.82254,1.36953 2.03823,1.51169 C 317.749,104.25725 306.65905,120 305.4044,120 c -0.7389,0 -3.60717,-3.35468 -6.37393,-7.45484 z M 118.38783,15.48676 c -3.23831,-4.13228 -5.97976,-7.84478 -6.09211,-8.25 -0.20579,-0.7422 98.40404,-75.005508 101.69187,-76.584398 1.39535,-0.670074 12.42217,7.144797 52.63876,37.305865 C 294.60686,-11.057346 317.64751,6.52912 317.8278,7.03927 318.13389,7.90538 306.40323,23 305.42405,23 305.17793,23 285.29434,8.23876 261.23828,-9.802766 237.18223,-27.844287 216.91757,-42.958165 216.2057,-43.389161 215.34634,-43.90946 199.85816,-32.886463 170.11523,-10.586395 145.47733,7.88612 125.08429,23 124.79736,23 c -0.28693,0 -3.17122,-3.38096 -6.40953,-7.51324 z m 137.57738,-69.971636 c -18.40587,-13.501749 -33.59701,-25.144977 -33.7581,-25.87384 -0.16109,-0.728863 0.29321,-1.811622 1.00955,-2.40613 0.99435,-0.825243 8.69682,4.341227 32.56322,21.841961 C 272.97331,-48.315298 287.25652,-38 287.52033,-38 287.78415,-38 288,-40.281298 288,-43.069551 c 0,-4.685327 0.17053,-5.045332 2.25,-4.75 2.13147,0.302718 2.25,0.766592 2.25,8.805856 0,6.833834 -0.29886,8.54386 -1.53479,8.781879 -0.84414,0.162566 -16.59414,-10.751311 -35,-24.25306 z m -116.05502,20.876663 c -1.13407,-1.366475 -1.04824,-1.817677 0.57105,-3.001728 1.04816,-0.766434 14.23511,-10.730239 29.30433,-22.141788 L 197.18416,-79.5 192.59208,-79.804791 C 188.45158,-80.079609 188,-80.353604 188,-82.591003 v -2.481421 l 9.75,0.286212 c 8.4546,0.248185 9.75,0.515398 9.75,2.01121 0,1.091269 -11.86054,10.734969 -32.28422,26.25 C 157.45947,-43.036251 142.55207,-32 142.08823,-32 c -0.46384,0 -1.44396,-0.723696 -2.17804,-1.608213 z"
         id="path243"
         inkscape:connector-curvature="0" />
      <path
         style="fill:#f49d46"
         d="m 108,132.5 c 0,-2 0.5,-2.5 2.5,-2.5 2,0 2.5,0.5 2.5,2.5 0,2 -0.5,2.5 -2.5,2.5 -2,0 -2.5,-0.5 -2.5,-2.5 z m 10,0 c 0,-2 0.5,-2.5 2.5,-2.5 2,0 2.5,0.5 2.5,2.5 0,2 -0.5,2.5 -2.5,2.5 -2,0 -2.5,-0.5 -2.5,-2.5 z m 10,0 V 130 h 86 86 v 2.5 2.5 h -86 -86 z m 177,0 c 0,-2 0.5,-2.5 2.5,-2.5 2,0 2.5,0.5 2.5,2.5 0,2 -0.5,2.5 -2.5,2.5 -2,0 -2.5,-0.5 -2.5,-2.5 z m 10,0 c 0,-2 0.5,-2.5 2.5,-2.5 2,0 2.5,0.5 2.5,2.5 0,2 -0.5,2.5 -2.5,2.5 -2,0 -2.5,-0.5 -2.5,-2.5 z M 122.94755,81.75 c -0.0454,-33.13059 -0.24037,-37.98232 -1.45645,-36.25 -4.11892,5.86742 -4.04151,5.81098 -6.30707,4.59849 -2.12145,-1.13536 -2.06979,-1.28809 3.07916,-9.10409 3.13644,-4.76105 5.92647,-7.95839 6.95634,-7.97188 1.03764,-0.0136 3.74282,2.97588 6.82171,7.5386 4.12092,6.10694 4.87253,7.83785 3.90803,9 -1.78936,2.15605 -2.63258,1.79883 -5.41322,-2.29325 L 128,43.53573 V 81.76787 120 h -2.5 -2.5 l -0.0524,-38.25 z m 17.50828,36.99549 c -0.26748,-0.69704 -0.36697,-14.76243 -0.22108,-31.25642 L 140.5,57.5 142.75,57.18045 145,56.8609 V 85.93045 115 h 33.96617 33.96617 l 0.28383,-10.75 0.28383,-10.75 5.68874,0.34272 c 6.50752,0.39205 10.53012,-1.40392 13.17572,-5.88255 5.44794,-9.22263 -3.94103,-21.2352 -14.00208,-17.91475 -1.82781,0.60323 -3.78208,0.81323 -4.34283,0.46666 C 213.45711,70.16447 213,66.09752 213,61.44098 V 53 h -7 -7 v 3.28811 c 0,1.80846 -1.0125,5.29233 -2.25,7.74193 -5.10164,10.09857 -17.33673,12.80248 -26.24023,5.79898 -3.33094,-2.62011 -6.45771,-9.14245 -6.48781,-13.53333 L 164,53.09138 157.25,52.79569 C 150.71384,52.50937 150.48998,52.41288 150.18358,49.75 149.91862,47.44725 150.24558,47 152.194,47 155.03224,47 190,12.49119 190,9.6902 c 0,-0.98424 0.71909,-3.22967 1.59797,-4.98986 0.9447,-1.89199 -8.03144,6.38577 -21.95646,20.24817 -12.95494,12.89668 -23.68653,24.37168 -23.84797,25.5 C 145.58702,51.89182 144.75886,52.5 143,52.5 h -2.5 V 35.51524 18.53049 L 177.45214,-8.234757 C 197.77581,-22.955641 214.79128,-35 215.2643,-35 c 0.47301,0 17.48205,12.036175 37.79786,26.747056 L 290,18.49411 v 12.3225 c 0,12.2069 -0.0211,12.31949 -2.25,12.00294 -2.14036,-0.30398 -2.27436,-0.8517 -2.75,-11.24039 L 284.5,20.65833 253,-2.19278 c -17.325,-12.568108 -32.93885,-23.7121 -34.69744,-24.764427 -3.16976,-1.896755 -3.2217,-1.895255 -6,0.173297 C 210.76115,-25.63627 195.2125,-10.480538 177.75,6.89549 148.14801,36.3509 146,38.72508 146,41.98846 c 0,3.40451 0.90196,2.59853 33,-29.48846 18.15,-18.14375 33.00351,-33.441193 33.0078,-33.994318 0.004,-0.553125 1.09243,-1.508447 2.41808,-2.122938 2.09959,-0.973235 2.48354,-0.844329 2.97855,1 0.31254,1.164491 0.57441,6.449656 0.58192,11.744811 0.0157,11.093365 -0.70046,12.388415 -6.00904,10.865935 -9.45064,-2.7104 -18.98224,6.40149 -16.0357,15.32959 0.61404,1.86055 2.26585,4.46149 3.67069,5.77987 2.21557,2.07921 3.50452,2.39173 9.72097,2.35693 3.9417,-0.0221 7.49734,0.42793 7.90142,1 0.40408,0.57207 0.74158,5.87762 0.75,11.79012 L 218,47 h 9 9 v -4.03984 c 0,-10.6277 10.28741,-19.44203 20.4632,-17.53304 7.25241,1.36056 15.57725,12.34981 14.32358,18.90793 -0.44131,2.30859 -0.1879,2.42508 6.4939,2.98526 3.82422,0.32061 8.2562,0.32231 9.84883,0.004 l 2.89571,-0.57914 -0.26261,36.37752 L 289.5,119.5 l -74.27892,0.25641 c -59.2304,0.20447 -74.37745,-3.4e-4 -74.76525,-1.01092 z m 47.90561,-55.60482 c 4.00502,-4.06616 4.7334,-5.37793 4.46241,-8.03656 L 192.5,51.92687 184.52346,59.96344 176.54692,68 h 3.51413 c 2.88009,0 4.37771,-0.87676 8.30039,-4.85933 z m 5.11368,-15.14163 C 211.2381,30.21243 211.40909,30 207.96376,30 c -3.17483,0 -4.95376,1.46929 -19.90031,16.43646 -14.17366,14.19322 -16.23671,16.64985 -15.11618,18 0.71369,0.85995 1.58002,1.56311 1.92517,1.56258 0.34516,-5.3e-4 8.71636,-8.10053 18.60268,-18 z M 200.32333,28.25 C 199.38525,27.5625 198.34617,27 198.01424,27 c -0.33192,0 -6.95719,6.4125 -14.72281,14.25 -12.82497,12.94368 -14.06889,14.51148 -13.56923,17.10234 0.53363,2.76702 1.025,2.37819 16.4284,-13 C 200.26056,31.26546 201.83896,29.36079 200.32333,28.25 Z m -6.04686,-4.497 c -1.58836,-1.75512 -2.20943,-1.29226 -13.85589,10.32623 -11.56148,11.53372 -12.10937,12.26138 -10.57841,14.04941 1.54462,1.80398 2.14501,1.35654 13.85589,-10.32623 11.62591,-11.59799 12.15772,-12.30429 10.57841,-14.04941 z m -16.06741,9.497 c 12.76785,-12.83104 13.60056,-13.89935 12.45961,-15.9847 -1.17354,-2.14492 -1.86398,-1.59245 -17.18395,13.75 C 157.61045,46.91286 157.54253,47 161.02512,47 c 3.16907,0 4.80127,-1.30603 17.18394,-13.75 z m 30.16126,9.88281 c 3.03848,-3.11169 3.71305,-4.48703 3.45294,-7.03998 L 211.5,32.92005 204.52682,39.96002 197.55364,47 h 3.52023 c 2.76914,0 4.32594,-0.82512 7.29645,-3.86719 z M 212,45 c 0,-1.1 -0.15526,-2 -0.34501,-2 -0.18976,0 -1.1595,0.9 -2.15499,2 -1.75677,1.94121 -1.74663,2 0.34501,2 C 211.33333,47 212,46.38128 212,45 Z M 171.00765,10.32382 C 184.47844,-3.24808 193.925,-13.22315 192,-11.843011 c -1.925,1.380139 -6.875,4.903719 -11,7.830178 C 176.875,-1.08637 167.3125,7.42017 159.75,14.8906 147.667,26.8265 146,28.86885 146,31.7366 146,33.53147 146.11594,35 146.25765,35 c 0.14171,0 11.27921,-11.10428 24.75,-24.67618 z m -17.97876,8.06413 6.47111,-6.61206 -6.75,4.7935 C 148.6484,19.48213 146,22.0764 146,23.18144 146,24.18165 146.1255,25 146.27889,25 c 0.15339,0 3.19089,-2.97542 6.75,-6.61205 z m 57.14914,-27.121532 c 1.33598,-1.335985 1.86626,-2.997509 1.64635,-5.158557 l -0.32438,-3.187814 -6.85645,6.922348 -6.85646,6.922345 5.2101,-1.763788 c 2.86555,-0.970086 6.09693,-2.650626 7.18084,-3.734534 z M 299.03047,112.54516 C 296.26371,108.445 294,104.64236 294,104.09485 c 0,-0.54751 0.773,-1.42806 1.71779,-1.95679 1.37804,-0.77119 2.21861,-0.23712 4.25,2.70031 L 302.5,108.5 l 0.26195,-38.31799 0.26194,-38.31798 2.23806,0.31798 L 307.5,32.5 l 0.5,38 0.5,38 2.35393,-3.78619 c 2.02207,-3.25242 2.58599,-3.60951 4,-2.53297 0.90534,0.68927 1.82254,1.36953 2.03823,1.51169 C 317.749,104.25725 306.65905,120 305.4044,120 c -0.7389,0 -3.60717,-3.35468 -6.37393,-7.45484 z M 118.38783,15.48676 c -3.23831,-4.13228 -5.97976,-7.84478 -6.09211,-8.25 -0.20579,-0.7422 98.40404,-75.005508 101.69187,-76.584398 1.39535,-0.670074 12.42217,7.144797 52.63876,37.305865 C 294.60686,-11.057346 317.64751,6.52912 317.8278,7.03927 318.13389,7.90538 306.40323,23 305.42405,23 305.17793,23 285.29434,8.23876 261.23828,-9.802766 237.18223,-27.844287 216.91757,-42.958165 216.2057,-43.389161 215.34634,-43.90946 199.85816,-32.886463 170.11523,-10.586395 145.47733,7.88612 125.08429,23 124.79736,23 c -0.28693,0 -3.17122,-3.38096 -6.40953,-7.51324 z m 137.57738,-69.971636 c -18.40587,-13.501749 -33.59701,-25.144977 -33.7581,-25.87384 -0.16109,-0.728863 0.29321,-1.811622 1.00955,-2.40613 0.99435,-0.825243 8.69682,4.341227 32.56322,21.841961 C 272.97331,-48.315298 287.25652,-38 287.52033,-38 287.78415,-38 288,-40.281298 288,-43.069551 c 0,-4.685327 0.17053,-5.045332 2.25,-4.75 2.13147,0.302718 2.25,0.766592 2.25,8.805856 0,6.833834 -0.29886,8.54386 -1.53479,8.781879 -0.84414,0.162566 -16.59414,-10.751311 -35,-24.25306 z m -116.05502,20.876663 c -1.13407,-1.366475 -1.04824,-1.817677 0.57105,-3.001728 1.04816,-0.766434 14.23511,-10.730239 29.30433,-22.141788 L 197.18416,-79.5 192.59208,-79.804791 C 188.45158,-80.079609 188,-80.353604 188,-82.591003 v -2.481421 l 9.75,0.286212 c 8.4546,0.248185 9.75,0.515398 9.75,2.01121 0,1.091269 -11.86054,10.734969 -32.28422,26.25 C 157.45947,-43.036251 142.55207,-32 142.08823,-32 c -0.46384,0 -1.44396,-0.723696 -2.17804,-1.608213 z"
         id="path241"
         inkscape:connector-curvature="0" />
      <path
         style="fill:#f86367"
         d="m 108,132.5 c 0,-2 0.5,-2.5 2.5,-2.5 2,0 2.5,0.5 2.5,2.5 0,2 -0.5,2.5 -2.5,2.5 -2,0 -2.5,-0.5 -2.5,-2.5 z m 10,0 c 0,-2 0.5,-2.5 2.5,-2.5 2,0 2.5,0.5 2.5,2.5 0,2 -0.5,2.5 -2.5,2.5 -2,0 -2.5,-0.5 -2.5,-2.5 z m 10,0 V 130 h 86 86 v 2.5 2.5 h -86 -86 z m 177,0 c 0,-2 0.5,-2.5 2.5,-2.5 2,0 2.5,0.5 2.5,2.5 0,2 -0.5,2.5 -2.5,2.5 -2,0 -2.5,-0.5 -2.5,-2.5 z m 10,0 c 0,-2 0.5,-2.5 2.5,-2.5 2,0 2.5,0.5 2.5,2.5 0,2 -0.5,2.5 -2.5,2.5 -2,0 -2.5,-0.5 -2.5,-2.5 z M 122.94755,81.75 c -0.0454,-33.13059 -0.24037,-37.98232 -1.45645,-36.25 -4.11892,5.86742 -4.04151,5.81098 -6.30707,4.59849 -2.12145,-1.13536 -2.06979,-1.28809 3.07916,-9.10409 3.13644,-4.76105 5.92647,-7.95839 6.95634,-7.97188 1.03764,-0.0136 3.74282,2.97588 6.82171,7.5386 4.12092,6.10694 4.87253,7.83785 3.90803,9 -1.78936,2.15605 -2.63258,1.79883 -5.41322,-2.29325 L 128,43.53573 V 81.76787 120 h -2.5 -2.5 l -0.0524,-38.25 z m 17.50828,36.99549 c -0.26748,-0.69704 -0.36697,-14.76243 -0.22108,-31.25642 L 140.5,57.5 142.75,57.18045 145,56.8609 V 85.93045 115 h 33.96617 33.96617 l 0.28383,-10.75 0.28383,-10.75 5.68874,0.34272 c 6.50752,0.39205 10.53012,-1.40392 13.17572,-5.88255 5.44794,-9.22263 -3.94103,-21.2352 -14.00208,-17.91475 -1.82781,0.60323 -3.78208,0.81323 -4.34283,0.46666 C 213.45711,70.16447 213,66.09752 213,61.44098 V 53 h -7 -7 v 3.28811 c 0,1.80846 -1.0125,5.29233 -2.25,7.74193 -5.10164,10.09857 -17.33673,12.80248 -26.24023,5.79898 -3.33094,-2.62011 -6.45771,-9.14245 -6.48781,-13.53333 L 164,53.09138 157.25,52.79569 C 150.79552,52.51295 150.5,52.39055 150.5,50 c 0,-2.49123 0.0333,-2.5 9.5,-2.5 h 9.5 l 0.0107,6.5 c 0.0131,7.9611 1.92486,11.23711 7.88637,13.51383 3.91183,1.49394 4.54939,1.49142 8.35944,-0.0331 5.86195,-2.34549 7.71992,-5.5845 7.73287,-13.48077 l 0.0107,-6.5 9.75,-0.28621 9.75,-0.28621 v -8.84841 -8.8484 h -4.82653 c -2.65459,0 -6.20099,-0.71076 -7.88088,-1.57947 -6.70214,-3.46581 -11.17854,-12.11524 -9.87265,-19.07622 1.37047,-7.30523 10.68669,-14.505426 18.83006,-14.553118 L 213,-6 v -8.569551 c 0,-8.314957 0.0668,-8.560057 2.25,-8.25 2.15077,0.305458 2.26245,0.787063 2.53232,10.920285 0.32494,12.201376 -0.29567,13.472816 -5.80501,11.892756 -9.45064,-2.7104 -18.98224,6.40149 -16.0357,15.32959 0.61404,1.86055 2.26585,4.46149 3.67069,5.77987 2.21557,2.07921 3.50452,2.39173 9.72097,2.35693 3.9417,-0.0221 7.49734,0.42793 7.90142,1 0.40408,0.57207 0.74158,5.87762 0.75,11.79012 L 218,47 h 9 9 v -4.03984 c 0,-10.6277 10.28741,-19.44203 20.4632,-17.53304 7.25241,1.36056 15.57725,12.34981 14.32358,18.90793 -0.44131,2.30859 -0.1879,2.42508 6.4939,2.98526 3.82422,0.32061 8.2562,0.32231 9.84883,0.004 l 2.89571,-0.57914 -0.26261,36.37752 L 289.5,119.5 l -74.27892,0.25641 c -59.2304,0.20447 -74.37745,-3.4e-4 -74.76525,-1.01092 z m 158.57464,-6.20033 C 296.26371,108.445 294,104.64236 294,104.09485 c 0,-0.54751 0.773,-1.42806 1.71779,-1.95679 1.37804,-0.77119 2.21861,-0.23712 4.25,2.70031 L 302.5,108.5 l 0.26195,-38.31799 0.26194,-38.31798 2.23806,0.31798 L 307.5,32.5 l 0.5,38 0.5,38 2.35393,-3.78619 c 2.02207,-3.25242 2.58599,-3.60951 4,-2.53297 0.90534,0.68927 1.82254,1.36953 2.03823,1.51169 C 317.749,104.25725 306.65905,120 305.4044,120 c -0.7389,0 -3.60717,-3.35468 -6.37393,-7.45484 z M 140.44216,51.70986 c -0.27229,-0.70958 -0.37067,-8.4659 -0.21862,-17.23627 L 140.5,18.52746 177.45214,-8.23627 C 197.77581,-22.956322 214.79128,-35 215.2643,-35 c 0.47301,0 17.48205,12.036175 37.79786,26.747056 L 290,18.49411 v 12.3225 c 0,12.2069 -0.0211,12.31949 -2.25,12.00294 -2.14048,-0.304 -2.27434,-0.85145 -2.75,-11.24709 L 284.5,20.64492 255,-0.77196 c -16.225,-11.779292 -31.82818,-22.990326 -34.67374,-24.913413 l -5.17374,-3.49652 L 180.10126,-3.84095 145.05,21.5 145.025,37.25 C 145.0009,52.40624 144.92342,53 142.96862,53 c -1.11726,0 -2.25417,-0.58056 -2.52646,-1.29014 z m -22.05433,-36.2231 c -3.23831,-4.13228 -5.97976,-7.84478 -6.09211,-8.25 -0.20579,-0.7422 98.40404,-75.005508 101.69187,-76.584398 1.39535,-0.670074 12.42217,7.144797 52.63876,37.305865 C 294.60686,-11.057346 317.64751,6.52912 317.8278,7.03927 318.13389,7.90538 306.40323,23 305.42405,23 305.17793,23 285.29434,8.23876 261.23828,-9.802766 237.18223,-27.844287 216.91757,-42.958165 216.2057,-43.389161 215.34634,-43.90946 199.85816,-32.886463 170.11523,-10.586395 145.47733,7.88612 125.08429,23 124.79736,23 c -0.28693,0 -3.17122,-3.38096 -6.40953,-7.51324 z m 137.57738,-69.971636 c -18.40587,-13.501749 -33.59701,-25.144977 -33.7581,-25.87384 -0.16109,-0.728863 0.29321,-1.811622 1.00955,-2.40613 0.99435,-0.825243 8.69682,4.341227 32.56322,21.841961 C 272.97331,-48.315298 287.25652,-38 287.52033,-38 287.78415,-38 288,-40.281298 288,-43.069551 c 0,-4.685327 0.17053,-5.045332 2.25,-4.75 2.13147,0.302718 2.25,0.766592 2.25,8.805856 0,6.833834 -0.29886,8.54386 -1.53479,8.781879 -0.84414,0.162566 -16.59414,-10.751311 -35,-24.25306 z m -116.05502,20.876663 c -1.13407,-1.366475 -1.04824,-1.817677 0.57105,-3.001728 1.04816,-0.766434 14.23511,-10.730239 29.30433,-22.141788 L 197.18416,-79.5 192.59208,-79.804791 C 188.45158,-80.079609 188,-80.353604 188,-82.591003 v -2.481421 l 9.75,0.286212 c 8.4546,0.248185 9.75,0.515398 9.75,2.01121 0,1.091269 -11.86054,10.734969 -32.28422,26.25 C 157.45947,-43.036251 142.55207,-32 142.08823,-32 c -0.46384,0 -1.44396,-0.723696 -2.17804,-1.608213 z"
         id="path239"
         inkscape:connector-curvature="0" />
      <path
         style="fill:#36b3cb"
         d="m 108,132.5 c 0,-2 0.5,-2.5 2.5,-2.5 2,0 2.5,0.5 2.5,2.5 0,2 -0.5,2.5 -2.5,2.5 -2,0 -2.5,-0.5 -2.5,-2.5 z m 10,0 c 0,-2 0.5,-2.5 2.5,-2.5 2,0 2.5,0.5 2.5,2.5 0,2 -0.5,2.5 -2.5,2.5 -2,0 -2.5,-0.5 -2.5,-2.5 z m 10,0 V 130 h 86 86 v 2.5 2.5 h -86 -86 z m 177,0 c 0,-2 0.5,-2.5 2.5,-2.5 2,0 2.5,0.5 2.5,2.5 0,2 -0.5,2.5 -2.5,2.5 -2,0 -2.5,-0.5 -2.5,-2.5 z m 10,0 c 0,-2 0.5,-2.5 2.5,-2.5 2,0 2.5,0.5 2.5,2.5 0,2 -0.5,2.5 -2.5,2.5 -2,0 -2.5,-0.5 -2.5,-2.5 z M 122.94755,81.75 c -0.0454,-33.13059 -0.24037,-37.98232 -1.45645,-36.25 -4.11892,5.86742 -4.04151,5.81098 -6.30707,4.59849 -2.12145,-1.13536 -2.06979,-1.28809 3.07916,-9.10409 3.13644,-4.76105 5.92647,-7.95839 6.95634,-7.97188 1.03764,-0.0136 3.74282,2.97588 6.82171,7.5386 4.12092,6.10694 4.87253,7.83785 3.90803,9 -1.78936,2.15605 -2.63258,1.79883 -5.41322,-2.29325 L 128,43.53573 V 81.76787 120 h -2.5 -2.5 l -0.0524,-38.25 z m 17.50828,36.99549 c -0.26748,-0.69704 -0.36697,-14.76243 -0.22108,-31.25642 L 140.5,57.5 142.75,57.18045 145,56.8609 V 85.93045 115 h 69.9867 69.9867 L 285.2367,81.25 285.5,47.5 287.76255,47.1788 290.0251,46.85761 289.76255,83.1788 289.5,119.5 l -74.27892,0.25641 c -59.2304,0.20447 -74.37745,-3.4e-4 -74.76525,-1.01092 z m 158.57464,-6.20033 C 296.26371,108.445 294,104.64236 294,104.09485 c 0,-0.54751 0.773,-1.42806 1.71779,-1.95679 1.37804,-0.77119 2.21861,-0.23712 4.25,2.70031 L 302.5,108.5 l 0.26195,-38.31799 0.26194,-38.31798 2.23806,0.31798 L 307.5,32.5 l 0.5,38 0.5,38 2.35393,-3.78619 c 2.02207,-3.25242 2.58599,-3.60951 4,-2.53297 0.90534,0.68927 1.82254,1.36953 2.03823,1.51169 C 317.749,104.25725 306.65905,120 305.4044,120 c -0.7389,0 -3.60717,-3.35468 -6.37393,-7.45484 z M 213.20956,101.75 213.5,93.5 l 5.68874,0.34272 c 6.50752,0.39205 10.53012,-1.40392 13.17572,-5.88255 5.44794,-9.22263 -3.94103,-21.2352 -14.00208,-17.91475 -1.82781,0.60323 -3.78208,0.81323 -4.34283,0.46666 C 213.45711,70.16447 213,66.09752 213,61.44098 V 53 h -7 -7 l -0.022,3.25 c -0.0299,4.43152 -3.14364,10.9485 -6.48781,13.57902 -8.9035,7.0035 -21.13859,4.29959 -26.24023,-5.79898 C 165.0125,61.58044 164,58.11713 164,56.3338 v -3.24242 l -6.75,-0.29569 C 150.79552,52.51295 150.5,52.39055 150.5,50 c 0,-2.49123 0.0333,-2.5 9.5,-2.5 h 9.5 l 0.0107,6.5 c 0.0129,7.89627 1.87092,11.13528 7.73287,13.48077 3.81005,1.52448 4.44761,1.527 8.35943,0.0331 5.96151,-2.27672 7.87332,-5.55273 7.88638,-13.51383 l 0.0107,-6.5 9.75,-0.28621 9.75,-0.28621 v -8.84841 -8.8484 h -4.82653 c -2.65459,0 -6.20099,-0.71076 -7.88088,-1.57947 -6.70214,-3.46581 -11.17854,-12.11524 -9.87265,-19.07622 1.37047,-7.30523 10.68669,-14.505426 18.83006,-14.553118 L 213,-6 v -8.569551 c 0,-8.314957 0.0668,-8.560057 2.25,-8.25 2.15077,0.305458 2.26245,0.787063 2.53232,10.920285 0.32494,12.201376 -0.29567,13.472816 -5.80501,11.892756 -9.45064,-2.7104 -18.98224,6.40149 -16.0357,15.32959 0.61404,1.86055 2.26585,4.46149 3.67069,5.77987 2.21557,2.07921 3.50452,2.39173 9.72097,2.35693 3.9417,-0.0221 7.49734,0.42793 7.90142,1 0.40408,0.57207 0.74158,5.87762 0.75,11.79012 L 218,47 h 9 9 v -4.03984 c 0,-10.6277 10.28741,-19.44203 20.4632,-17.53304 7.32681,1.37452 15.57563,12.35828 14.29848,19.03924 C 270.29706,46.89685 270.47527,47 275.13867,47 279.87348,47 280,47.0781 280,50 v 3 h -6.87756 c -8.14541,0 -9.54529,-1.03883 -8.11593,-6.02269 2.86665,-9.99545 -7.09173,-19.4755 -16.38102,-15.59419 -5.4925,2.29491 -7.75739,6.76165 -7.41161,14.61688 L 241.5,52.5 229.75,52.78174 218,53.06347 V 58.53174 64 l 3.25,0.022 c 6.98723,0.0472 15.83039,6.46585 17.37231,12.60934 0.34195,1.36244 0.4097,4.68378 0.15055,7.38077 -0.84196,8.76244 -7.67035,15.10662 -16.4017,15.23862 L 218,99.31683 v 5.34161 c 0,5.05374 -0.13692,5.34162 -2.54044,5.34162 -2.53877,0 -2.54025,-0.005 -2.25,-8.25 z m -72.7674,-50.04014 c -0.27229,-0.70958 -0.37067,-8.4659 -0.21862,-17.23627 L 140.5,18.52746 177.45214,-8.23627 C 197.77581,-22.956322 214.79128,-35 215.2643,-35 c 0.47301,0 17.48205,12.036175 37.79786,26.747056 L 290,18.49411 v 12.3225 c 0,12.2069 -0.0211,12.31949 -2.25,12.00294 -2.14048,-0.304 -2.27434,-0.85145 -2.75,-11.24709 L 284.5,20.64492 255,-0.77196 c -16.225,-11.779292 -31.82818,-22.990326 -34.67374,-24.913413 l -5.17374,-3.49652 L 180.10126,-3.84095 145.05,21.5 145.025,37.25 C 145.0009,52.40624 144.92342,53 142.96862,53 c -1.11726,0 -2.25417,-0.58056 -2.52646,-1.29014 z m -22.05433,-36.2231 c -3.23831,-4.13228 -5.97976,-7.84478 -6.09211,-8.25 -0.20579,-0.7422 98.40404,-75.005508 101.69187,-76.584398 1.39535,-0.670074 12.42217,7.144797 52.63876,37.305865 C 294.60686,-11.057346 317.64751,6.52912 317.8278,7.03927 318.13389,7.90538 306.40323,23 305.42405,23 305.17793,23 285.29434,8.23876 261.23828,-9.802766 237.18223,-27.844287 216.91757,-42.958165 216.2057,-43.389161 215.34634,-43.90946 199.85816,-32.886463 170.11523,-10.586395 145.47733,7.88612 125.08429,23 124.79736,23 c -0.28693,0 -3.17122,-3.38096 -6.40953,-7.51324 z m 137.57738,-69.971636 c -18.40587,-13.501749 -33.59701,-25.144977 -33.7581,-25.87384 -0.16109,-0.728863 0.29321,-1.811622 1.00955,-2.40613 0.99435,-0.825243 8.69682,4.341227 32.56322,21.841961 C 272.97331,-48.315298 287.25652,-38 287.52033,-38 287.78415,-38 288,-40.281298 288,-43.069551 c 0,-4.685327 0.17053,-5.045332 2.25,-4.75 2.13147,0.302718 2.25,0.766592 2.25,8.805856 0,6.833834 -0.29886,8.54386 -1.53479,8.781879 -0.84414,0.162566 -16.59414,-10.751311 -35,-24.25306 z m -116.05502,20.876663 c -1.13407,-1.366475 -1.04824,-1.817677 0.57105,-3.001728 1.04816,-0.766434 14.23511,-10.730239 29.30433,-22.141788 L 197.18416,-79.5 192.59208,-79.804791 C 188.45158,-80.079609 188,-80.353604 188,-82.591003 v -2.481421 l 9.75,0.286212 c 8.4546,0.248185 9.75,0.515398 9.75,2.01121 0,1.091269 -11.86054,10.734969 -32.28422,26.25 C 157.45947,-43.036251 142.55207,-32 142.08823,-32 c -0.46384,0 -1.44396,-0.723696 -2.17804,-1.608213 z"
         id="path237"
         inkscape:connector-curvature="0" />
      <path
         style="fill:#626262"
         d="m 108,132.5 c 0,-2 0.5,-2.5 2.5,-2.5 2,0 2.5,0.5 2.5,2.5 0,2 -0.5,2.5 -2.5,2.5 -2,0 -2.5,-0.5 -2.5,-2.5 z m 10,0 c 0,-2 0.5,-2.5 2.5,-2.5 2,0 2.5,0.5 2.5,2.5 0,2 -0.5,2.5 -2.5,2.5 -2,0 -2.5,-0.5 -2.5,-2.5 z m 10,0 V 130 h 86 86 v 2.5 2.5 h -86 -86 z m 177,0 c 0,-2 0.5,-2.5 2.5,-2.5 2,0 2.5,0.5 2.5,2.5 0,2 -0.5,2.5 -2.5,2.5 -2,0 -2.5,-0.5 -2.5,-2.5 z m 10,0 c 0,-2 0.5,-2.5 2.5,-2.5 2,0 2.5,0.5 2.5,2.5 0,2 -0.5,2.5 -2.5,2.5 -2,0 -2.5,-0.5 -2.5,-2.5 z M 122.94755,81.75 c -0.0454,-33.13059 -0.24037,-37.98232 -1.45645,-36.25 -4.11892,5.86742 -4.04151,5.81098 -6.30707,4.59849 -2.12145,-1.13536 -2.06979,-1.28809 3.07916,-9.10409 3.13644,-4.76105 5.92647,-7.95839 6.95634,-7.97188 1.03764,-0.0136 3.74282,2.97588 6.82171,7.5386 4.12092,6.10694 4.87253,7.83785 3.90803,9 -1.78936,2.15605 -2.63258,1.79883 -5.41322,-2.29325 L 128,43.53573 V 81.76787 120 h -2.5 -2.5 l -0.0524,-38.25 z m 17.50828,36.99549 c -0.26748,-0.69704 -0.36697,-14.76243 -0.22108,-31.25642 L 140.5,57.5 142.75,57.18045 145,56.8609 V 85.93045 115 h 69.9867 69.9867 L 285.2367,81.25 285.5,47.5 287.76255,47.1788 290.0251,46.85761 289.76255,83.1788 289.5,119.5 l -74.27892,0.25641 c -59.2304,0.20447 -74.37745,-3.4e-4 -74.76525,-1.01092 z m 158.57464,-6.20033 C 296.26371,108.445 294,104.64236 294,104.09485 c 0,-0.54751 0.773,-1.42806 1.71779,-1.95679 1.37804,-0.77119 2.21861,-0.23712 4.25,2.70031 L 302.5,108.5 l 0.26195,-38.31799 0.26194,-38.31798 2.23806,0.31798 L 307.5,32.5 l 0.5,38 0.5,38 2.35393,-3.78619 c 2.02207,-3.25242 2.58599,-3.60951 4,-2.53297 0.90534,0.68927 1.82254,1.36953 2.03823,1.51169 C 317.749,104.25725 306.65905,120 305.4044,120 c -0.7389,0 -3.60717,-3.35468 -6.37393,-7.45484 z M 213.20956,101.75 213.5,93.5 l 5.68874,0.34272 c 6.50752,0.39205 10.53012,-1.40392 13.17572,-5.88255 5.44794,-9.22263 -3.94103,-21.2352 -14.00208,-17.91475 -1.82781,0.60323 -3.78208,0.81323 -4.34283,0.46666 C 213.45711,70.16447 213,66.09752 213,61.44098 V 53 h -7 -7 l -0.022,3.25 c -0.0299,4.43152 -3.14364,10.9485 -6.48781,13.57902 -8.9035,7.0035 -21.13859,4.29959 -26.24023,-5.79898 C 165.0125,61.58044 164,58.11713 164,56.3338 v -3.24242 l -6.75,-0.29569 C 150.79552,52.51295 150.5,52.39055 150.5,50 c 0,-2.49123 0.0333,-2.5 9.5,-2.5 h 9.5 l 0.0107,6.5 c 0.0129,7.89627 1.87092,11.13528 7.73287,13.48077 3.81005,1.52448 4.44761,1.527 8.35943,0.0331 5.96151,-2.27672 7.87332,-5.55273 7.88638,-13.51383 l 0.0107,-6.5 9.75,-0.28621 9.75,-0.28621 v -8.84841 -8.8484 h -4.82653 c -2.65459,0 -6.20099,-0.71076 -7.88088,-1.57947 -6.70214,-3.46581 -11.17854,-12.11524 -9.87265,-19.07622 1.37047,-7.30523 10.68669,-14.505426 18.83006,-14.553118 L 213,-6 v -8.569551 c 0,-8.314957 0.0668,-8.560057 2.25,-8.25 2.15077,0.305458 2.26245,0.787063 2.53232,10.920285 0.32494,12.201376 -0.29567,13.472816 -5.80501,11.892756 -9.45064,-2.7104 -18.98224,6.40149 -16.0357,15.32959 0.61404,1.86055 2.26585,4.46149 3.67069,5.77987 2.21557,2.07921 3.50452,2.39173 9.72097,2.35693 3.9417,-0.0221 7.49734,0.42793 7.90142,1 0.40408,0.57207 0.74158,5.87762 0.75,11.79012 L 218,47 h 9 9 v -4.03984 c 0,-10.6277 10.28741,-19.44203 20.4632,-17.53304 7.32681,1.37452 15.57563,12.35828 14.29848,19.03924 C 270.29706,46.89685 270.47527,47 275.13867,47 279.87348,47 280,47.0781 280,50 v 3 h -6.87756 c -8.14541,0 -9.54529,-1.03883 -8.11593,-6.02269 2.86665,-9.99545 -7.09173,-19.4755 -16.38102,-15.59419 -5.4925,2.29491 -7.75739,6.76165 -7.41161,14.61688 L 241.5,52.5 229.75,52.78174 218,53.06347 V 58.53174 64 l 3.25,0.022 c 6.98723,0.0472 15.83039,6.46585 17.37231,12.60934 0.34195,1.36244 0.4097,4.68378 0.15055,7.38077 -0.84196,8.76244 -7.67035,15.10662 -16.4017,15.23862 L 218,99.31683 v 5.34161 c 0,5.05374 -0.13692,5.34162 -2.54044,5.34162 -2.53877,0 -2.54025,-0.005 -2.25,-8.25 z m -72.7674,-50.04014 c -0.27229,-0.70958 -0.37067,-8.4659 -0.21862,-17.23627 L 140.5,18.52746 177.45214,-8.23627 C 197.77581,-22.956322 214.79128,-35 215.2643,-35 c 0.47301,0 17.48205,12.036175 37.79786,26.747056 L 290,18.49411 v 12.3225 c 0,12.2069 -0.0211,12.31949 -2.25,12.00294 -2.14048,-0.304 -2.27434,-0.85145 -2.75,-11.24709 L 284.5,20.64492 255,-0.77196 c -16.225,-11.779292 -31.82818,-22.990326 -34.67374,-24.913413 l -5.17374,-3.49652 L 180.10126,-3.84095 145.05,21.5 145.025,37.25 C 145.0009,52.40624 144.92342,53 142.96862,53 c -1.11726,0 -2.25417,-0.58056 -2.52646,-1.29014 z m -22.05433,-36.2231 c -3.23831,-4.13228 -5.97976,-7.84478 -6.09211,-8.25 -0.20579,-0.7422 98.40404,-75.005508 101.69187,-76.584398 1.39535,-0.670074 12.42217,7.144797 52.63876,37.305865 C 294.60686,-11.057346 317.64751,6.52912 317.8278,7.03927 318.13389,7.90538 306.40323,23 305.42405,23 305.17793,23 285.29434,8.23876 261.23828,-9.802766 237.18223,-27.844287 216.91757,-42.958165 216.2057,-43.389161 215.34634,-43.90946 199.85816,-32.886463 170.11523,-10.586395 145.47733,7.88612 125.08429,23 124.79736,23 c -0.28693,0 -3.17122,-3.38096 -6.40953,-7.51324 z m 52.20498,-32.928184 44.57808,-33.441424 44.66455,33.517597 44.66456,33.517601 3.25,-3.74279 c 1.7875,-2.05853 3.23097,-4.00531 3.20771,-4.32617 -0.0232,-0.32086 -21.58973,-16.699679 -47.92549,-36.397365 L 215.14901,-64.12795 167.04915,-28.036882 118.9493,8.05419 l 3.19271,3.9729 c 1.756,2.1851 3.34572,3.97291 3.53272,3.97291 0.187,0 20.40013,-15.04864 44.91808,-33.441424 z m 85.3724,-37.043452 c -18.40587,-13.501749 -33.59701,-25.144977 -33.7581,-25.87384 -0.16109,-0.728863 0.29321,-1.811622 1.00955,-2.40613 0.99435,-0.825243 8.69682,4.341227 32.56322,21.841961 C 272.97331,-48.315298 287.25652,-38 287.52033,-38 287.78415,-38 288,-40.281298 288,-43.069551 c 0,-4.685327 0.17053,-5.045332 2.25,-4.75 2.13147,0.302718 2.25,0.766592 2.25,8.805856 0,6.833834 -0.29886,8.54386 -1.53479,8.781879 -0.84414,0.162566 -16.59414,-10.751311 -35,-24.25306 z m -116.05502,20.876663 c -1.13407,-1.366475 -1.04824,-1.817677 0.57105,-3.001728 1.04816,-0.766434 14.23511,-10.730239 29.30433,-22.141788 L 197.18416,-79.5 192.59208,-79.804791 C 188.45158,-80.079609 188,-80.353604 188,-82.591003 v -2.481421 l 9.75,0.286212 c 8.4546,0.248185 9.75,0.515398 9.75,2.01121 0,1.091269 -11.86054,10.734969 -32.28422,26.25 C 157.45947,-43.036251 142.55207,-32 142.08823,-32 c -0.46384,0 -1.44396,-0.723696 -2.17804,-1.608213 z"
         id="path235"
         inkscape:connector-curvature="0" />
      <path
         style="fill:#050504"
         d="m 108,132.5 c 0,-1.83333 0.53333,-2.5 2,-2.5 1.46667,0 2,0.66667 2,2.5 0,1.83333 -0.53333,2.5 -2,2.5 -1.46667,0 -2,-0.66667 -2,-2.5 z m 10,0 c 0,-1.83333 0.53333,-2.5 2,-2.5 1.46667,0 2,0.66667 2,2.5 0,1.83333 -0.53333,2.5 -2,2.5 -1.46667,0 -2,-0.66667 -2,-2.5 z m 10,0 V 130 h 86 86 v 2.5 2.5 h -86 -86 z m 178,0 c 0,-1.83333 0.53333,-2.5 2,-2.5 1.46667,0 2,0.66667 2,2.5 0,1.83333 -0.53333,2.5 -2,2.5 -1.46667,0 -2,-0.66667 -2,-2.5 z m 10,0 c 0,-1.83333 0.53333,-2.5 2,-2.5 1.46667,0 2,0.66667 2,2.5 0,1.83333 -0.53333,2.5 -2,2.5 -1.46667,0 -2,-0.66667 -2,-2.5 z m -193.03327,-50.75 -0.0333,-38.25 -2.00657,2.40999 c -1.10362,1.3255 -2.41317,3.1255 -2.91012,4 -0.82271,1.44777 -1.05214,1.44328 -2.56469,-0.0502 -1.5459,-1.52645 -1.30489,-2.1682 3.47386,-9.25 C 121.75019,36.42439 124.65852,33 125.38889,33 c 1.1683,0 3.10794,2.55413 10.00781,13.17838 1.67449,2.57833 1.66511,2.71817 -0.25099,3.74364 -1.71069,0.91553 -2.29393,0.57422 -4.14964,-2.42838 C 129.80851,45.57214 128.42358,44 127.91844,44 127.37663,44 127,59.58299 127,82 c 0,37.33333 -0.0351,38 -2,38 -1.96456,0 -2.00059,-0.67776 -2.03327,-38.25 z m 18.70634,37.58974 C 141.30288,118.96955 141,105.01667 141,88.33333 141,58.66667 141.04396,58 143,58 c 1.95322,0 2,0.66667 2,28.5 V 115 h 70 70 l 0.011,-29.75 C 285.0234,51.82267 285.34482,48 288.14346,48 c 1.8122,0 1.87208,1.32221 1.61916,35.75 L 289.5,119.5 l -73.57693,0.2564 c -40.46731,0.14102 -73.87981,-0.0465 -74.25,-0.41666 z m 157.29638,-7.38628 c -4.30772,-6.56144 -5.05376,-8.28737 -3.89833,-9.01858 2.21895,-1.40424 2.60728,-1.18978 5.09732,2.81512 L 302.5,109.5 302.76188,71.25 C 303.01808,33.83069 303.06694,33 305.01188,33 306.96116,33 307,33.74237 307,71 c 0,20.9 0.3375,37.99443 0.75,37.98762 0.4125,-0.007 1.76664,-1.58181 3.00919,-3.5 2.43176,-3.75401 3.41583,-4.19221 5.02505,-2.23762 0.74862,0.9093 -0.37639,3.27545 -4.12756,8.68117 -2.83617,4.08714 -5.65243,7.58989 -6.25835,7.78389 -0.60593,0.194 -3.49892,-3.29872 -6.42888,-7.7616 z M 213,102.05902 c 0,-4.36754 0.37973,-8.17567 0.84385,-8.46251 0.46411,-0.28684 2.51179,-0.061 4.55039,0.5019 C 226.51874,96.34169 234,90.56969 234,82.05813 234,73.38004 227.77894,68.38394 218.42793,69.55227 L 213,70.23045 v -9.15904 -9.15903 l -7.0922,0.29381 -7.09219,0.29381 -0.2925,4.69539 C 197.94535,66.47007 190.91198,73 181.5,73 172.08784,73 165.05437,66.46987 164.47716,57.19539 L 164.18494,52.5 157.59247,52.20431 C 151.81891,51.94535 151,51.66586 151,49.95431 151,48.15225 151.74077,48 160.50874,48 h 9.50873 l -0.62567,5.32352 c -0.75601,6.43241 1.12545,10.80164 5.90675,13.71696 4.23589,2.58278 8.64478,2.47229 12.789,-0.3205 4.88198,-3.28996 6.10696,-6.19069 5.47723,-12.96998 L 193.03066,48 H 203.01533 213 V 38.5 29 l -4.25,-0.022 C 198.53621,28.9252 191.81883,22.6363 191.19479,12.5425 190.85927,7.11548 191.12409,6.08426 193.79439,2.41905 197.40178,-2.53232 202.26015,-5 208.40113,-5 H 213 v -8.5 c 0,-7.833333 0.15686,-8.5 2,-8.5 1.87958,0 2,0.666667 2,11.071956 V 0.14391 l -5.38606,-0.67294 c -16.82117,-2.10167 -23.13573,17.66905 -7.73701,24.22436 2.95705,1.25883 5.90275,1.25119 11.85863,-0.0308 C 216.156,23.57404 216.725,28.9 217,35.5 l 0.5,12 h 9.32961 9.32961 l 0.2824,-5.2423 c 0.89276,-16.57213 20.96697,-22.4324 30.90165,-9.02114 1.32537,1.78918 2.17775,4.81839 2.46214,8.75 L 270.24038,48 h 4.87981 C 279.33333,48 280,48.27323 280,50 c 0,1.82391 -0.66667,2 -7.57196,2 h -7.57195 l 0.67294,-5.38606 c 1.26167,-10.09805 -4.6092,-17.17515 -13.49468,-16.26728 -3.56335,0.36409 -5.14883,1.20175 -7.84683,4.14578 -3.24046,3.53596 -3.36674,3.96663 -3.03435,10.34853 L 241.5,51.5 229.75,51.78174 218,52.06347 v 6.34444 6.34443 l 5.34163,0.44297 c 3.43626,0.28496 6.5098,1.27477 8.61653,2.7749 3.73111,2.65678 6.9875,9.01877 7.01988,13.71469 C 239.04164,90.90882 230.88933,99 221.53212,99 H 218 v 5.5 c 0,5.2 -0.13636,5.5 -2.5,5.5 -2.45679,0 -2.5,-0.13727 -2.5,-7.94098 z M 141,35.24706 V 18.49411 l 37.05433,-26.83141 37.05434,-26.831412 5.19566,3.608056 C 223.16195,-29.576226 239.9,-17.49426 257.5,-4.711842 l 32,23.240762 0.28174,11.73554 C 290.05115,41.48688 289.97464,42 288.03174,42 286.12082,42 286,41.38701 286,31.69151 V 21.38302 L 251.48779,-3.55849 c -18.98172,-13.71783 -35.29422,-24.916569 -36.25,-24.886086 -0.95578,0.03048 -17.15029,11.218147 -35.98779,24.861476 L 145,21.22295 V 36.61148 C 145,51.33333 144.91335,52 143,52 c -1.92041,0 -2,-0.66667 -2,-16.75294 z M 118.29113,15.03823 112.08226,7.187 l 51.56576,-38.677162 51.56575,-38.677159 3.24866,2.333661 c 13.31504,9.564796 99.46183,74.46342 99.49528,74.95469 0.0233,0.34157 -2.70931,4.06813 -6.07237,8.28124 l -6.11465,7.6602 -3.13535,-2.36525 c -57.03452,-43.025995 -86.85866,-64.825501 -88.05855,-64.365062 -0.79946,0.306782 -21.27601,15.432548 -45.50346,33.612813 -24.22744,18.180269 -44.16767,33.030159 -44.31161,32.999759 -0.14395,-0.0304 -3.05571,-3.58832 -6.47059,-7.9065 z m 53.0868,-32.566774 c 28.96886,-21.728882 43.96075,-32.385687 44.8244,-31.862888 0.71372,0.432038 20.022,14.82859 42.90729,31.992338 22.8853,17.163744 42.5658,31.803954 43.73446,32.533794 1.92733,1.20364 2.40136,1.00343 5.09974,-2.15386 1.63619,-1.91446 2.99319,-3.98741 3.01554,-4.60654 C 311.00047,7.23562 216.72088,-64 215.17274,-64 c -1.0024,0 -95.56051,70.79355 -95.928,71.81916 -0.48752,1.36061 6.00736,8.29808 7.30317,7.80083 0.71681,-0.27507 20.89032,-15.19191 44.83002,-33.148534 z M 257.5,-53.662801 c -17.6,-12.958775 -32.79758,-24.12289 -33.7724,-24.809144 -1.87186,-1.317751 -1.41625,-4.563274 0.62939,-4.483456 0.62865,0.02453 15.09301,10.32674 32.14301,22.893802 l 31,22.849204 0.30226,-4.893803 C 288.05648,-46.222285 288.42048,-47 290.0927,-47 c 1.8457,0 1.96737,0.585463 1.69774,8.16951 -0.15974,4.493231 -0.74044,8.295418 -1.29044,8.449305 -0.55,0.153887 -15.4,-10.32284 -33,-23.281616 z m -117.19973,20.002903 c -0.75987,-1.980193 -2.40639,-0.60715 31.29855,-26.100095 L 197.69765,-79.5 192.84883,-79.80226 C 188.43216,-80.07758 188,-80.326022 188,-82.589785 v -2.485267 l 9.25,0.287526 c 8.35733,0.259778 9.25,0.472944 9.25,2.208863 0,1.348429 -9.54181,9.172983 -32,26.240915 -17.6,13.375768 -32.35162,24.323667 -32.78139,24.328663 -0.42976,0.005 -1.06801,-0.737869 -1.41834,-1.650813 z"
         id="path233"
         inkscape:connector-curvature="0" />
    </g>
  </g>
  <metadata
     id="metadata3272">
    <rdf:RDF>
      <cc:Work
         rdf:about="">
        <dc:format>image/svg+xml</dc:format>
        <dc:type
           rdf:resource="http://purl.org/dc/dcmitype/StillImage" />
        <dc:title></dc:title>
        <cc:license
           rdf:resource="" />
        <dc:date>Mon Oct 10 13:44:52 2011 +0000</dc:date>
        <dc:creator>
          <cc:Agent>
            <dc:title>[wmayer]</dc:title>
          </cc:Agent>
        </dc:creator>
        <dc:rights>
          <cc:Agent>
            <dc:title>FreeCAD LGPL2+</dc:title>
          </cc:Agent>
        </dc:rights>
        <dc:publisher>
          <cc:Agent>
            <dc:title>FreeCAD</dc:title>
          </cc:Agent>
        </dc:publisher>
        <dc:identifier>FreeCAD/src/Mod/Draft/Resources/icons/Draft_Arc.svg</dc:identifier>
        <dc:relation>http://www.freecadweb.org/wiki/index.php?title=Artwork</dc:relation>
        <dc:contributor>
          <cc:Agent>
            <dc:title>[agryson] Alexander Gryson</dc:title>
          </cc:Agent>
        </dc:contributor>
        <dc:subject>
          <rdf:Bag>
            <rdf:li>point</rdf:li>
            <rdf:li>dot</rdf:li>
            <rdf:li>arc</rdf:li>
            <rdf:li>curve</rdf:li>
            <rdf:li>line</rdf:li>
          </rdf:Bag>
        </dc:subject>
        <dc:description>An arc of 90° with a point at each end with a third point in the lower left where the centerpoint of the arc would be</dc:description>
      </cc:Work>
    </rdf:RDF>
  </metadata>
</svg>
