<?xml version="1.0" encoding="UTF-8" standalone="no"?>
<svg
   xmlns:dc="http://purl.org/dc/elements/1.1/"
   xmlns:cc="http://creativecommons.org/ns#"
   xmlns:rdf="http://www.w3.org/1999/02/22-rdf-syntax-ns#"
   xmlns:svg="http://www.w3.org/2000/svg"
   xmlns="http://www.w3.org/2000/svg"
   xmlns:sodipodi="http://sodipodi.sourceforge.net/DTD/sodipodi-0.dtd"
   xmlns:inkscape="http://www.inkscape.org/namespaces/inkscape"
   width="64"
   height="64"
   version="1.1"
   id="svg16"
   sodipodi:docname="ReferenceObject.svg"
   inkscape:version="0.92.4 5da689c313, 2019-01-14">
  <metadata
     id="metadata22">
    <rdf:RDF>
      <cc:Work
         rdf:about="">
        <dc:format>image/svg+xml</dc:format>
        <dc:type
           rdf:resource="http://purl.org/dc/dcmitype/StillImage" />
        <dc:title />
      </cc:Work>
    </rdf:RDF>
  </metadata>
  <defs
     id="defs20" />
  <sodipodi:namedview
     pagecolor="#ffffff"
     bordercolor="#666666"
     borderopacity="1"
     objecttolerance="10"
     gridtolerance="10"
     guidetolerance="10"
     inkscape:pageopacity="0"
     inkscape:pageshadow="2"
     inkscape:window-width="1600"
     inkscape:window-height="824"
     id="namedview18"
     showgrid="false"
     inkscape:zoom="7.375"
     inkscape:cx="39.568587"
     inkscape:cy="31.451297"
     inkscape:window-x="0"
     inkscape:window-y="0"
     inkscape:window-maximized="1"
     inkscape:current-layer="svg16" />
  <path
     inkscape:connector-curvature="0"
     style="opacity:0.2;stroke-width:1.16096902"
     d="m 11.683042,3.5562595 c -1.607942,0 -2.902422,1.2944804 -2.902422,2.9024225 v 52.243605 c 0,1.607942 1.29448,2.902422 2.902422,2.902422 h 40.633915 c 1.607943,0 2.902423,-1.29448 2.902423,-2.902422 V 20.970794 L 39.256056,19.519583 37.804845,3.5562595 Z"
     id="path2" />
  <path
     inkscape:connector-curvature="0"
     style="fill:#1273b2;stroke-width:1.16096902"
     d="m 11.683042,2.3952905 c -1.607942,0 -2.902422,1.2944804 -2.902422,2.9024225 v 52.243605 c 0,1.607942 1.29448,2.902422 2.902422,2.902422 h 40.633915 c 1.607943,0 2.902423,-1.29448 2.902423,-2.902422 V 19.809825 L 39.256056,18.358614 37.804845,2.3952905 Z"
     id="path4" />
  <path
     inkscape:connector-curvature="0"
     style="opacity:0.2;stroke-width:1.16096902"
     d="M 37.804845,3.5562595 V 18.068372 c 0,1.603066 1.299473,2.902422 2.902422,2.902422 H 55.21938 Z"
     id="path6" />
  <path
     inkscape:connector-curvature="0"
     style="fill:#4e92be;stroke-width:1.16096902"
     d="M 37.804845,2.3952905 V 16.907403 c 0,1.603066 1.299473,2.902422 2.902422,2.902422 H 55.21938 Z"
     id="path8" />
  <path
     inkscape:connector-curvature="0"
     style="opacity:0.2;stroke-width:1.16096902"
     d="M 23.873217,3.5562595 V 32.580484 H 13.424496 V 43.029205 H 8.78062 v 3.482907 h 4.643876 v 10.448721 h 10.448721 v 3.482907 h 3.482907 V 56.960833 H 37.804845 V 46.512112 H 55.21938 V 43.029205 H 37.804845 V 32.580484 H 27.356124 V 3.5562595 Z M 16.907403,53.477926 V 36.063391 H 34.321938 V 53.477926 M 23.873217,43.029205 v 3.482907 h 3.482907 v -3.482907 z"
     id="path10" />
  <path
     inkscape:connector-curvature="0"
     style="fill:#ffffff;stroke-width:1.16096902"
     d="M 23.873217,2.3952905 V 31.419515 H 13.424496 V 41.868236 H 8.78062 v 3.482907 h 4.643876 v 10.448721 h 10.448721 v 4.643876 h 3.482907 V 55.799864 H 37.804845 V 45.351143 H 55.21938 V 41.868236 H 37.804845 V 31.419515 H 27.356124 V 2.3952905 Z M 16.907403,52.316957 V 34.902422 H 34.321938 V 52.316957 M 23.873217,41.868236 v 3.482907 h 3.482907 v -3.482907 z"
     id="path12" />
  <path
     inkscape:connector-curvature="0"
     style="opacity:0.2;fill:#ffffff;stroke-width:1.16096902"
     d="m 11.683042,2.3952905 c -1.607942,0 -2.902422,1.2944804 -2.902422,2.9024225 v 1.160969 c 0,-1.6079421 1.29448,-2.9024225 2.902422,-2.9024225 h 26.121803 c 0,-1.160969 0,0 0,-1.160969 z"
     id="path14" />
</svg>
