<?xml version="1.0" encoding="UTF-8" standalone="no"?>
<!-- Created with Inkscape (http://www.inkscape.org/) -->

<svg
   xmlns:dc="http://purl.org/dc/elements/1.1/"
   xmlns:cc="http://creativecommons.org/ns#"
   xmlns:rdf="http://www.w3.org/1999/02/22-rdf-syntax-ns#"
   xmlns:svg="http://www.w3.org/2000/svg"
   xmlns="http://www.w3.org/2000/svg"
   xmlns:sodipodi="http://sodipodi.sourceforge.net/DTD/sodipodi-0.dtd"
   xmlns:inkscape="http://www.inkscape.org/namespaces/inkscape"
   width="64px"
   height="64px"
   id="svg2726"
   sodipodi:version="0.32"
   inkscape:version="0.92.1 r15371"
   sodipodi:docname="Reports.svg"
   inkscape:output_extension="org.inkscape.output.svg.inkscape"
   version="1.1">
  <defs
     id="defs2728">
    <inkscape:perspective
       sodipodi:type="inkscape:persp3d"
       inkscape:vp_x="0 : 32 : 1"
       inkscape:vp_y="0 : 1000 : 0"
       inkscape:vp_z="64 : 32 : 1"
       inkscape:persp3d-origin="32 : 21.333333 : 1"
       id="perspective2734" />
    <linearGradient
       id="linearGradient3836-0">
      <stop
         style="stop-color:#c4a000;stop-opacity:1;"
         offset="0"
         id="stop3838-2" />
      <stop
         style="stop-color:#fce94f;stop-opacity:1;"
         offset="1"
         id="stop3840-5" />
    </linearGradient>
    <linearGradient
       id="linearGradient3836-0-6">
      <stop
         style="stop-color:#c4a000;stop-opacity:1;"
         offset="0"
         id="stop3838-2-7" />
      <stop
         style="stop-color:#fce94f;stop-opacity:1;"
         offset="1"
         id="stop3840-5-5" />
    </linearGradient>
  </defs>
  <sodipodi:namedview
     id="base"
     pagecolor="#ffffff"
     bordercolor="#666666"
     borderopacity="1.0"
     inkscape:pageopacity="0.0"
     inkscape:pageshadow="2"
     inkscape:zoom="6.7193458"
     inkscape:cx="61.271813"
     inkscape:cy="22.171161"
     inkscape:current-layer="layer1"
     showgrid="true"
     inkscape:document-units="px"
     inkscape:grid-bbox="true"
     inkscape:window-width="1920"
     inkscape:window-height="1017"
     inkscape:window-x="-8"
     inkscape:window-y="-8"
     inkscape:snap-bbox="true"
     inkscape:snap-nodes="true"
     inkscape:window-maximized="1">
    <inkscape:grid
       type="xygrid"
       id="grid2999"
       units="px"
       empspacing="2"
       visible="true"
       enabled="true"
       snapvisiblegridlinesonly="true"
       spacingx="1"
       spacingy="1"
       originx="0"
       originy="0" />
  </sodipodi:namedview>
  <g
     id="layer1"
     inkscape:label="Layer 1"
     inkscape:groupmode="layer">
    <path
       inkscape:connector-curvature="0"
       id="path4530"
       d="M 9.8384,32 V 2.9129 H 25.109647 40.380894 L 47.271247,9.8042864 54.1616,16.695674 V 38.891386 61.0871 H 32 9.8384 Z"
       style="fill:#e0f4fd;stroke-width:0.13851" />
    <path
       inkscape:connector-curvature="0"
       id="path4528"
       d="M 9.8384,32 V 2.9129 H 25.039363 40.240327 L 47.200963,9.8725136 54.1616,16.832126 V 38.959614 61.0871 H 32 9.8384 Z M 51.94544,18.11382 c 0,-0.01935 -2.929487,-2.96417 -6.50997,-6.544045 L 38.9255,5.0609103 V 11.604955 18.149 h 6.50997 c 3.580483,0 6.50997,-0.01583 6.50997,-0.03518 z"
       style="fill:#8fc9f8;stroke:#0b1521;stroke-width:1;stroke-miterlimit:4;stroke-dasharray:none;stroke-opacity:1" />
    <path
       inkscape:connector-curvature="0"
       id="path4526"
       d="m 18.356765,51.194539 c -0.521475,-0.233445 -1.252694,-0.996548 -1.44586,-1.508904 -0.205826,-0.545937 -0.183103,-1.681755 0.04424,-2.211591 0.366629,-0.854435 1.424546,-1.623044 2.233966,-1.623044 0.285325,0 0.720175,-0.65069 3.241541,-4.850478 2.603222,-4.336135 2.897791,-4.887873 2.777927,-5.203142 -0.177747,-0.46751 -0.170722,-1.604513 0.01292,-2.091615 0.199384,-0.528847 0.93286,-1.281444 1.476039,-1.514516 0.572016,-0.245445 1.722297,-0.245445 2.294313,0 0.543179,0.233072 1.276655,0.985669 1.476039,1.514516 0.08085,0.214455 0.147004,0.71376 0.147004,1.109564 v 0.719644 l 2.390741,2.387814 c 1.90673,1.904395 2.465999,2.387813 2.762473,2.387813 0.340788,0 0.614127,-0.403752 3.283741,-4.850478 2.603222,-4.336135 2.897791,-4.887873 2.777927,-5.203142 -0.19449,-0.511547 -0.164346,-1.658099 0.05717,-2.174336 0.233072,-0.54318 0.985669,-1.276655 1.514516,-1.476039 0.545937,-0.205826 1.681755,-0.183103 2.211591,0.04424 0.54318,0.233072 1.276655,0.985669 1.476039,1.514516 0.205826,0.545937 0.183103,1.681755 -0.04424,2.211591 C 46.678222,31.231391 45.620305,32 44.810885,32 c -0.285325,0 -0.720175,0.65069 -3.241541,4.850478 -2.603222,4.336135 -2.897791,4.887873 -2.777927,5.203142 0.19449,0.511547 0.164346,1.658099 -0.05717,2.174336 -0.233072,0.54318 -0.985669,1.276655 -1.514516,1.476039 C 37.00528,45.784848 36.526284,45.851 36.1553,45.851 c -0.859288,0 -1.336997,-0.182941 -1.921028,-0.735672 C 33.626541,44.540169 33.3851,43.952697 33.3851,43.049137 v -0.73311 l -2.390741,-2.387814 c -1.906731,-1.904395 -2.466,-2.387813 -2.762474,-2.387813 -0.340788,0 -0.614127,0.403752 -3.283741,4.850478 -2.603222,4.336135 -2.897791,4.887873 -2.777927,5.203142 0.177747,0.46751 0.170722,1.604513 -0.01292,2.091615 -0.199384,0.528847 -0.93286,1.281444 -1.476039,1.514516 -0.561834,0.241077 -1.780003,0.238136 -2.324491,-0.0056 z"
       style="fill:#82bcef;stroke-width:0.13851" />
    <path
       inkscape:connector-curvature="0"
       id="path4524"
       d="m 18.427009,51.170756 c -2.542388,-1.102523 -2.059315,-4.849761 0.684681,-5.311121 0.460966,-0.0775 0.580581,-0.251399 3.374795,-4.906184 2.637888,-4.394371 2.883081,-4.856135 2.742452,-5.164783 C 25.143997,35.602243 25.0745,35.137905 25.0745,34.756805 25.0745,33.204735 26.285088,32 27.8447,32 c 1.596531,0 2.7702,1.216425 2.7702,2.871118 v 0.663855 l 2.402064,2.399124 c 2.125576,2.122972 2.447664,2.393835 2.798212,2.353185 0.360304,-0.04178 0.658225,-0.482677 3.292772,-4.872999 2.637571,-4.395362 2.882814,-4.857376 2.742189,-5.166015 -0.398294,-0.87416 -0.05823,-2.358304 0.697771,-3.045289 1.137452,-1.033611 2.933907,-0.983313 3.954403,0.110719 1.038389,1.113215 0.931009,3.059963 -0.222314,4.03042 -0.375858,0.316264 -0.68832,0.445764 -1.750447,0.725472 -0.07926,0.02087 -1.439905,2.19851 -3.023646,4.839191 -2.7559,4.595098 -2.87311,4.819659 -2.729968,5.230277 0.472244,1.35468 -0.155767,2.855917 -1.443301,3.450153 C 35.462064,46.452535 33.3851,45.116657 33.3851,43.050206 v -0.734179 l -2.402064,-2.399124 c -2.125576,-2.122972 -2.447664,-2.393835 -2.798212,-2.353185 -0.36029,0.04178 -0.657917,0.482165 -3.288217,4.865409 -2.770428,4.616764 -2.885765,4.837556 -2.742189,5.249422 0.342271,0.981837 0.03102,2.307559 -0.699424,2.979062 -0.767675,0.705734 -2.073557,0.927038 -3.027985,0.513145 z"
       style="fill:#5ca5e7;stroke-width:0.13851" />
    <path
       inkscape:connector-curvature="0"
       id="path4522"
       d="m 18.593812,51.243101 c -0.250527,-0.07668 -0.699127,-0.383036 -0.996891,-0.6808 -1.572268,-1.572268 -0.71342,-4.306108 1.460652,-4.649467 l 0.562297,-0.08881 2.873847,-4.789258 2.873847,-4.789256 -0.16268,-0.678125 c -0.308674,-1.286699 0.117775,-2.438314 1.157777,-3.126556 0.467689,-0.309501 0.715282,-0.371578 1.482039,-0.371578 0.766757,0 1.01435,0.06208 1.482039,0.371578 0.832332,0.550811 1.192158,1.223074 1.239381,2.315526 l 0.03937,0.910803 2.394001,2.375809 c 2.21648,2.199636 2.425348,2.370931 2.816715,2.310027 0.390261,-0.06073 0.643399,-0.433561 3.297633,-4.856834 l 2.874924,-4.79105 -0.16268,-0.678125 c -0.310047,-1.29242 0.156653,-2.514104 1.210764,-3.169428 0.785634,-0.488415 2.138364,-0.468493 2.911091,0.04287 0.867585,0.574142 1.218906,1.248442 1.218906,2.339482 0,0.755783 -0.06312,1.005806 -0.371578,1.471924 -0.444416,0.671559 -1.101786,1.10512 -1.859235,1.22624 l -0.555902,0.08889 -2.873847,4.789258 -2.873847,4.789256 0.16268,0.678125 c 0.310047,1.29242 -0.156653,2.514104 -1.210764,3.169428 -0.785634,0.488415 -2.138364,0.468493 -2.911091,-0.04287 -0.832332,-0.550811 -1.192158,-1.223074 -1.239381,-2.315526 l -0.03937,-0.910803 -2.394001,-2.375809 c -2.21648,-2.199636 -2.425348,-2.370931 -2.816715,-2.310027 -0.390261,0.06073 -0.643399,0.433561 -3.297633,4.856834 l -2.874924,4.79105 0.16268,0.678125 c 0.30583,1.274848 -0.157636,2.516629 -1.173632,3.144548 -0.565823,0.349698 -1.727791,0.48226 -2.406472,0.274542 z"
       style="fill:#1d87e4;stroke-width:0.13851" />
    <path
       inkscape:connector-curvature="0"
       id="path4520"
       d="m 18.593812,51.243101 c -0.659994,-0.201998 -1.507759,-1.108843 -1.698373,-1.81673 -0.478063,-1.775389 0.632592,-3.369143 2.463589,-3.535173 0.94821,-0.08598 1.702929,0.218936 2.300911,0.929596 1.039106,1.234908 0.710526,3.300947 -0.659655,4.147765 -0.565823,0.349698 -1.727791,0.48226 -2.406472,0.274542 z m 16.6212,-5.5404 c -0.954917,-0.292263 -1.828368,-1.544802 -1.828368,-2.621901 0,-2.544274 3.259646,-3.743312 4.894495,-1.800406 1.039106,1.234908 0.710526,3.300947 -0.659655,4.147765 -0.565823,0.349698 -1.727791,0.48226 -2.406472,0.274542 z M 26.580249,37.26255 c -1.891339,-0.99941 -1.983854,-3.733588 -0.164601,-4.864589 0.74887,-0.465558 2.109234,-0.465558 2.858104,0 1.502149,0.933864 1.765313,3.088744 0.528281,4.325776 -0.81744,0.81744 -2.243238,1.055892 -3.221784,0.538813 z m 16.6212,-5.531413 c -1.893245,-1.034263 -1.984697,-3.74205 -0.164601,-4.873576 0.414991,-0.257992 0.72242,-0.328706 1.429052,-0.328706 1.080116,0 1.757199,0.354302 2.329367,1.218906 0.309501,0.467689 0.371578,0.715282 0.371578,1.482039 0,0.766757 -0.06208,1.01435 -0.371578,1.482039 -0.528866,0.799168 -1.200588,1.171515 -2.234137,1.238414 -0.668035,0.04324 -0.967882,-0.0051 -1.359681,-0.219116 z"
       style="fill:#2371c7;stroke-width:0.13851" />
    <path
       inkscape:connector-curvature="0"
       id="path4518"
       d="m 19.187825,51.326447 c -0.07618,-0.02713 -0.308773,-0.08684 -0.516872,-0.132698 -0.4767,-0.10504 -1.298012,-0.81837 -1.590224,-1.381147 -0.268913,-0.517908 -0.294899,-1.818067 -0.04597,-2.30008 0.468757,-0.90768 1.2217,-1.439069 2.259598,-1.594712 0.950071,-0.142471 2.035589,0.401153 2.548428,1.276245 0.435543,0.743199 0.503841,1.929262 0.149976,2.60448 -0.238609,0.455295 -0.84691,1.064312 -1.281326,1.282835 -0.315027,0.158468 -1.3151,0.319334 -1.52361,0.245077 z m 16.6212,-5.5404 c -0.07618,-0.02713 -0.308773,-0.08684 -0.516872,-0.132698 -0.4767,-0.10504 -1.298012,-0.81837 -1.590224,-1.381147 -0.127372,-0.245312 -0.223365,-0.76398 -0.223774,-1.209097 -0.0014,-1.441752 0.92471,-2.463289 2.435578,-2.686768 0.952593,-0.140902 2.03759,0.402529 2.550252,1.277318 0.435543,0.743199 0.503841,1.929262 0.149976,2.60448 -0.238609,0.455295 -0.84691,1.064312 -1.281326,1.282835 -0.315027,0.158468 -1.3151,0.319334 -1.52361,0.245077 z M 26.630729,37.189698 C 25.65645,36.697166 25.16684,35.893664 25.16684,34.787296 c 0,-1.093731 0.529055,-1.966633 1.500525,-2.475757 0.503478,-0.26386 1.808876,-0.287091 2.286013,-0.04068 1.015065,0.524215 1.567446,1.407712 1.568467,2.508663 0.0014,1.460337 -0.954787,2.502748 -2.46938,2.692184 -0.581266,0.0727 -0.809721,0.02739 -1.421736,-0.282008 z m 16.6212,-5.5404 C 42.27765,31.156766 41.78804,30.353264 41.78804,29.246896 c 0,-1.093731 0.529055,-1.966633 1.500525,-2.475757 0.503478,-0.26386 1.808876,-0.287091 2.286013,-0.04068 1.012121,0.522692 1.567752,1.408493 1.567752,2.499341 0,0.847767 -0.23824,1.41026 -0.828806,1.956843 -0.542544,0.502136 -0.859296,0.645131 -1.650528,0.745116 -0.569788,0.072 -0.80175,0.02557 -1.411067,-0.282461 z"
       style="fill:#0c46a0;stroke-width:0.13851" />
  </g>
  <metadata
     id="metadata4723">
    <rdf:RDF>
      <cc:Work
         rdf:about="">
        <dc:format>image/svg+xml</dc:format>
        <dc:type
           rdf:resource="http://purl.org/dc/dcmitype/StillImage" />
        <dc:title>Draft_Line</dc:title>
        <cc:license
           rdf:resource="" />
        <dc:date>Mon Oct 10 13:44:52 2011 +0000</dc:date>
        <dc:creator>
          <cc:Agent>
            <dc:title>[wmayer]</dc:title>
          </cc:Agent>
        </dc:creator>
        <dc:rights>
          <cc:Agent>
            <dc:title>FreeCAD LGPL2+</dc:title>
          </cc:Agent>
        </dc:rights>
        <dc:publisher>
          <cc:Agent>
            <dc:title>FreeCAD</dc:title>
          </cc:Agent>
        </dc:publisher>
        <dc:identifier>FreeCAD/src/Mod/Draft/Resources/icons/Draft_Line.svg</dc:identifier>
        <dc:relation>http://www.freecadweb.org/wiki/index.php?title=Artwork</dc:relation>
        <dc:contributor>
          <cc:Agent>
            <dc:title>[agryson] Alexander Gryson</dc:title>
          </cc:Agent>
        </dc:contributor>
        <dc:subject>
          <rdf:Bag>
            <rdf:li>dot</rdf:li>
            <rdf:li>line</rdf:li>
          </rdf:Bag>
        </dc:subject>
        <dc:description>A line at an angle from lower left to upper right with a dot at each end</dc:description>
      </cc:Work>
    </rdf:RDF>
  </metadata>
</svg>
