<?xml version="1.0" encoding="UTF-8" standalone="no"?>
<!-- Created with Inkscape (http://www.inkscape.org/) -->

<svg
   xmlns:dc="http://purl.org/dc/elements/1.1/"
   xmlns:cc="http://creativecommons.org/ns#"
   xmlns:rdf="http://www.w3.org/1999/02/22-rdf-syntax-ns#"
   xmlns:svg="http://www.w3.org/2000/svg"
   xmlns="http://www.w3.org/2000/svg"
   xmlns:xlink="http://www.w3.org/1999/xlink"
   xmlns:sodipodi="http://sodipodi.sourceforge.net/DTD/sodipodi-0.dtd"
   xmlns:inkscape="http://www.inkscape.org/namespaces/inkscape"
   width="64px"
   height="64px"
   id="svg2869"
   sodipodi:version="0.32"
   inkscape:version="0.92.4 (5da689c313, 2019-01-14)"
   sodipodi:docname="RotateActive3DView.svg"
   inkscape:output_extension="org.inkscape.output.svg.inkscape"
   version="1.1">
  <defs
     id="defs2871">
    <radialGradient
       inkscape:collect="always"
       xlink:href="#linearGradient3144"
       id="radialGradient2378"
       gradientUnits="userSpaceOnUse"
       gradientTransform="matrix(1,0,0,0.6985294,0,202.82863)"
       cx="225.26402"
       cy="672.79736"
       fx="225.26402"
       fy="672.79736"
       r="34.345188" />
    <radialGradient
       inkscape:collect="always"
       xlink:href="#linearGradient3144"
       id="radialGradient2368"
       gradientUnits="userSpaceOnUse"
       gradientTransform="matrix(1,0,0,0.6985294,0,202.82863)"
       cx="225.26402"
       cy="672.79736"
       fx="225.26402"
       fy="672.79736"
       r="34.345188" />
    <linearGradient
       inkscape:collect="always"
       id="linearGradient3144">
      <stop
         style="stop-color:#ffffff;stop-opacity:1;"
         offset="0"
         id="stop3146" />
      <stop
         style="stop-color:#ffffff;stop-opacity:0;"
         offset="1"
         id="stop3148" />
    </linearGradient>
    <inkscape:perspective
       sodipodi:type="inkscape:persp3d"
       inkscape:vp_x="0 : 32 : 1"
       inkscape:vp_y="0 : 1000 : 0"
       inkscape:vp_z="64 : 32 : 1"
       inkscape:persp3d-origin="32 : 21.333333 : 1"
       id="perspective2877" />
    <linearGradient
       id="linearGradient3836">
      <stop
         style="stop-color:#c4a000;stop-opacity:1;"
         offset="0"
         id="stop3838" />
      <stop
         style="stop-color:#fce94f;stop-opacity:1;"
         offset="1"
         id="stop3840" />
    </linearGradient>
    <linearGradient
       id="linearGradient3836-9">
      <stop
         style="stop-color:#c4a000;stop-opacity:1;"
         offset="0"
         id="stop3838-8" />
      <stop
         style="stop-color:#fce94f;stop-opacity:1;"
         offset="1"
         id="stop3840-1" />
    </linearGradient>
    <linearGradient
       id="linearGradient3836-0">
      <stop
         style="stop-color:#c4a000;stop-opacity:1;"
         offset="0"
         id="stop3838-2" />
      <stop
         style="stop-color:#fce94f;stop-opacity:1;"
         offset="1"
         id="stop3840-5" />
    </linearGradient>
  </defs>
  <sodipodi:namedview
     id="base"
     pagecolor="#ffffff"
     bordercolor="#666666"
     borderopacity="1.0"
     inkscape:pageopacity="0.0"
     inkscape:pageshadow="2"
     inkscape:zoom="3.4194561"
     inkscape:cx="56.295823"
     inkscape:cy="5.4777284"
     inkscape:current-layer="layer1"
     showgrid="true"
     inkscape:document-units="px"
     inkscape:grid-bbox="true"
     inkscape:window-width="1920"
     inkscape:window-height="1017"
     inkscape:window-x="-8"
     inkscape:window-y="-8"
     inkscape:snap-bbox="true"
     inkscape:snap-nodes="true"
     inkscape:window-maximized="1">
    <inkscape:grid
       type="xygrid"
       id="grid3002"
       units="px"
       empspacing="2"
       visible="true"
       enabled="true"
       snapvisiblegridlinesonly="true"
       spacingx="1"
       spacingy="1"
       originx="0"
       originy="0" />
  </sodipodi:namedview>
  <g
     id="layer1"
     inkscape:label="Layer 1"
     inkscape:groupmode="layer">
    <g
       id="g1027"
       transform="matrix(0.25,0,0,0.25,-51.832536,18.064415)">
      <path
         style="fill:#b3c7e1"
         d="m 325.87171,167.08074 c -6.10514,-2.23668 -14.1479,-8.88449 -18.3692,-15.18322 -8.68558,-12.96001 -10.86843,-18.23211 -19.12373,-46.18834 -0.63609,-2.15409 -2.32889,-2.90683 -14.13787,-6.28676 -25.79258,-7.38226 -42.2798,-17.85552 -49.17351,-31.23674 -2.49557,-4.8441 -3.39943,-14.5642 -1.8773,-20.18851 1.746,-6.45153 8.8695,-15.21666 16.93757,-20.8409 6.30979,-4.398547 7.10506,-5.300726 6.61119,-7.5 -1.47951,-6.588512 -1.53556,-6.525748 5.5487,-6.213543 5.52747,0.243598 14.75603,1.697027 23.75,3.740449 1.27011,0.288568 2.24983,1.265036 2.24961,2.242146 -4.2e-4,1.803154 -16.93273,23.054388 -19.52481,24.504988 -1.08594,0.60772 -2.03872,-0.1155 -3.56896,-2.70906 -1.80254,-3.05508 -2.36025,-3.39215 -4.08516,-2.46901 -3.37157,1.80441 -9.87084,8.10034 -11.38542,11.02922 -6.40424,12.38445 9.15727,25.99912 39.42217,34.49021 2.94659,0.82669 5.58445,1.27605 5.86191,0.99859 0.27747,-0.27747 -0.032,-5.11892 -0.68764,-10.75879 -3.35852,-28.88896 4.0969,-80.250249 14.71236,-101.3552 7.40425,-14.720656 17.95699,-25.815861 27.71645,-29.141246 6.21757,-2.118537 15.57766,-1.400253 21.56642,1.654984 13.40601,6.839236 25.41899,26.900975 32.12942,53.656275 l 2.09384,8.348414 7.12491,2.078752 c 22.80843,6.654553 30.68701,9.991702 41.2163,17.458081 7.68166,5.4471 12.03874,10.39517 15.16321,17.21992 2.06587,4.51245 2.39359,6.5089 2.05936,12.54563 -0.44555,8.04756 -2.22601,12.46402 -7.51649,18.64475 -9.72385,11.36014 -26.96749,20.03165 -52.29387,26.29763 l -5.49639,1.35986 -2.67208,9.93847 c -5.9947,22.29658 -14.28035,38.44836 -24.1122,47.00355 -9.09229,7.91165 -20.30248,10.46302 -30.13879,6.8594 z m 16.08911,-16.2496 c 7.72672,-4.13522 18.04216,-22.28225 21.78422,-38.32302 l 1.35829,-5.82245 -22.65789,0.2353 c -12.46183,0.12941 -25.92038,-0.12945 -29.90788,-0.57525 -8.70707,-0.97345 -8.57114,-1.35913 -4.10596,11.6503 4.54925,13.25436 9.33323,22.22726 15.10366,28.32864 6.7021,7.08648 11.4397,8.24519 18.42556,4.50648 z m 21.82674,-61.27142 c 17.46011,-2.08299 39.72751,-8.28923 50.79434,-14.15709 6.89147,-3.654 14.20181,-9.87134 16.23919,-13.8112 5.99716,-11.59723 -5.93956,-23.26376 -33.26282,-32.50993 -6.17611,-2.08999 -11.47291,-3.556359 -11.77067,-3.2586 -0.54147,0.54147 1.19612,19.22405 2.00737,21.58337 0.2364,0.6875 2.01894,1.25 3.96121,1.25 2.80388,0 3.53138,0.39177 3.53138,1.90173 0,2.90184 -15.23909,27.0796 -17.07444,27.08965 -1.42024,0.008 -7.21662,-9.51514 -13.8179,-22.70154 -3.08823,-6.1689 -2.81486,-7.12368 2.14234,-7.48234 l 4.25,-0.3075 -0.26238,-6 c -0.47088,-10.76777 -1.35641,-16.475933 -2.77623,-17.895756 -0.767,-0.767002 -4.67209,-1.728199 -8.67797,-2.135994 -9.05222,-0.921506 -44.36222,-0.728744 -51.77141,0.282627 l -5.48799,0.749123 -0.79295,5 c -1.10223,6.95015 -1.38061,45.55005 -0.3877,53.75786 0.63481,5.24764 1.26971,6.99988 2.84102,7.84082 5.00931,2.6809 40.60803,3.15588 60.31561,0.80477 z M 353.23658,4.46381 c 6.29696,0.620265 11.65063,0.92614 11.89705,0.679722 0.93246,-0.932456 -6.24168,-21.30075 -10.0338,-28.487262 -6.44512,-12.214241 -13.09296,-18 -20.68202,-18 -3.38239,0 -4.80231,0.761529 -9.60613,5.15195 -4.45737,4.07379 -6.66235,7.265192 -10.53638,15.25 -4.50445,9.284155 -9.45601,24.02724 -8.55936,25.485151 0.20732,0.337094 8.40825,0.203351 18.22428,-0.297208 12.30067,-0.62726 21.40551,-0.559619 29.29636,0.217647 z"
         id="path1008"
         inkscape:connector-curvature="0" />
      <path
         style="fill:#98b2d3"
         d="m 325.41991,166.11593 c -13.84279,-6.00979 -25.51432,-23.48336 -32.7546,-49.03726 -2.01374,-7.10732 -4.06357,-13.43783 -4.55518,-14.06779 -0.4916,-0.62997 -2.56529,-1.45358 -4.6082,-1.83026 -8.52252,-1.57139 -28.29784,-8.82273 -36.15872,-13.2589 -30.61706,-17.27828 -32.53827,-43.3174 -4.56633,-61.88972 4.53296,-3.009717 5.52709,-4.146253 5.08096,-5.808784 -0.30506,-1.13682 -0.85402,-3.149716 -1.21993,-4.473101 -0.65905,-2.383629 -0.61181,-2.400636 5.04663,-1.816633 3.14156,0.324237 10.18742,1.372844 15.65747,2.330237 7.68136,1.344427 9.94555,2.101748 9.94555,3.326571 0,1.620272 -16.17714,21.93472 -18.58918,23.34337 -0.91258,0.53296 -1.8553,-0.25313 -2.99815,-2.5 -0.91686,-1.80256 -1.79625,-3.42635 -1.9542,-3.60841 -1.18874,-1.37022 -12.79668,8.65057 -15.03525,12.97949 -1.82747,3.53395 -1.81352,8.19608 0.0352,11.77115 2.10656,4.07363 10.38639,11.19202 17.17661,14.76718 8.46354,4.45618 28.12871,10.94945 29.37785,9.70031 0.67282,-0.67282 0.63792,-4.45308 -0.10565,-11.44586 -2.42349,-22.79115 0.90921,-57.755199 7.75289,-81.337172 5.74084,-19.781833 12.05948,-31.410307 22.23012,-40.911067 6.90008,-6.445616 12.00913,-8.646084 20.10975,-8.66128 19.37974,-0.03635 34.58098,19.113256 44.42477,55.963648 2.58828,9.689276 1.28735,8.746029 18.57523,13.468052 16.62504,4.540975 34.02351,14.073009 41.38531,22.673609 8.25203,9.64064 10.4239,21.16325 5.87245,31.15558 -2.88166,6.32645 -12.02126,15.31034 -20.97603,20.61867 -7.63678,4.52703 -24.75536,10.99229 -34.78173,13.13619 -7.42451,1.58756 -8.12154,2.11062 -8.9792,6.73815 -1.20005,6.47491 -7.6501,25.48481 -10.76067,31.71437 -6.71979,13.45778 -14.70918,22.30704 -23.90808,26.48124 -5.26307,2.38823 -15.7623,2.63066 -20.7197,0.47842 z m 17.60257,-15.20966 c 5.1568,-3.51378 8.17066,-7.17309 12.56852,-15.26018 3.5301,-6.4914 8.8729,-20.71534 10.00276,-26.62996 l 0.59986,-3.14014 -23.70303,0.14014 c -13.03667,0.0771 -26.85303,-0.0849 -30.70303,-0.35986 l -7,-0.5 0.25667,3.27113 c 0.34606,4.4103 5.22,18.26215 9.19764,26.1399 3.32274,6.58072 11.98479,16.69138 15.54569,18.14549 4.11032,1.67847 9.1249,0.994 13.23492,-1.80652 z m 18.26508,-60.35903 c 29.66346,-3.26584 53.81137,-11.78252 65.17575,-22.98672 6.33782,-6.24849 7.81765,-10.36418 5.85969,-16.29688 -1.61425,-4.89121 -10.29919,-12.51031 -19.1601,-16.80871 -9.00607,-4.36882 -26.89372,-10.186125 -27.96403,-9.094281 -0.42897,0.437591 -0.28505,5.858121 0.3198,12.045621 1.04389,10.67868 1.21415,11.25 3.35253,11.25 3.2502,0 5.41636,1.01467 5.41636,2.53712 0,1.37816 -12.2872,21.86679 -14.64918,24.42717 -1.18609,1.28571 -1.52193,1.28571 -2.75391,0 -1.76306,-1.83996 -13.59691,-24.23939 -13.59691,-25.73661 0,-0.60882 1.6875,-1.24661 3.75,-1.41731 l 3.75,-0.31037 -0.13243,-11.09606 c -0.0728,-6.10283 -0.6408,-12.045966 -1.26215,-13.206965 -0.66947,-1.250905 -2.65256,-2.433998 -4.86757,-2.903942 -6.34635,-1.346461 -59.41254,-0.979511 -61.86763,0.427811 -2.38543,1.36739 -3.01037,5.824916 -3.89457,27.779156 -0.45289,11.24477 0.88464,35.66937 2.1312,38.91784 0.74355,1.93767 4.40003,2.65285 17.75076,3.47195 13.30883,0.81653 29.62501,0.43435 42.64239,-0.99882 z M 328.16476,5.064483 c 10.79254,-0.306313 23.4478,-0.133572 28.1228,0.383869 4.675,0.517441 8.91468,0.563724 9.42151,0.102851 0.551,-0.501039 -0.42495,-4.970606 -2.42733,-11.116443 -7.48691,-22.979388 -18.03239,-36.77849 -28.10666,-36.77849 -10.77866,0 -23.17079,17.376655 -29.44308,41.28607 -1.60326,6.111478 -1.22902,8.22898 1.28391,7.264677 0.83933,-0.322081 10.35631,-0.836221 21.14885,-1.142534 z"
         id="path1006"
         inkscape:connector-curvature="0" />
      <path
         style="fill:#6590c7"
         d="m 327.5839,166.26857 c -15.8363,-5.17597 -28.9554,-26.05914 -37.32017,-59.40675 -1.20956,-4.82212 -1.24994,-4.84597 -13.97617,-8.2514 -26.93982,-7.20888 -45.68037,-19.46571 -50.83737,-33.24904 -2.66991,-7.13595 -2.73383,-12.18037 -0.23762,-18.74988 2.59201,-6.82161 7.83106,-12.9768 15.88651,-18.66454 3.67866,-2.597405 6.96932,-5.122765 7.31257,-5.611908 0.34324,-0.489144 0.15536,-2.41659 -0.41752,-4.283214 -0.57289,-1.866624 -0.79618,-3.639288 -0.49622,-3.939252 0.29997,-0.299965 6.11285,0.379715 12.91752,1.5104 16.80484,2.792342 17.14317,2.884588 16.52152,4.504587 -0.85524,2.228699 -17.88577,22.528697 -18.90029,22.528697 -0.50755,0 -1.4324,-1.35 -2.0552,-3 -1.41345,-3.74465 -3.31886,-3.7787 -8.32971,-0.14885 -5.24733,3.80113 -8.93242,8.31054 -10.38283,12.70534 -2.57524,7.80304 4.70821,17.40721 18.69736,24.65494 8.77922,4.54848 24.72622,9.99496 28.10034,9.59729 2.55863,-0.30156 2.60895,-0.44784 2.17015,-6.30872 -0.24706,-3.3 -0.41788,-15.9 -0.37958,-28 0.0573,-18.11584 0.47445,-24.38346 2.36257,-35.5 5.43456,-31.996754 16.55058,-56.577446 30.0756,-66.505724 12.87777,-9.453157 26.05,-8.286378 37.89419,3.35662 9.61866,9.455256 16.79173,23.490695 22.05216,43.149104 3.46978,12.966697 3.23539,12.610693 9.22076,14.004849 36.55724,8.51518 59.82139,25.846161 59.8243,44.567011 0.001,8.84025 -2.51085,14.13846 -10.40439,21.9426 -10.29105,10.17448 -29.67873,19.45478 -49.04077,23.47432 -3.03555,0.63018 -5.75484,1.52709 -6.04288,1.99315 -0.28804,0.46606 -1.64782,5.17383 -3.02173,10.46173 -8.57542,33.005 -23.7847,52.94148 -41.3109,54.15077 -3.21864,0.22208 -7.49953,-0.20337 -9.8822,-0.98213 z m 13.24237,-13.49077 c 8.14887,-3.70156 16.59221,-16.44409 22.41796,-33.83282 1.67383,-4.99604 3.04333,-10.2571 3.04333,-11.69123 v -2.60752 l -10.25,0.58875 c -5.6375,0.32381 -10.8039,0.75865 -11.4809,0.9663 -0.67699,0.20766 -9.88125,-0.0533 -20.4539,-0.57982 -10.57266,-0.52656 -19.60178,-0.57861 -20.06473,-0.11566 -1.14104,1.14104 4.62938,18.91587 9.11415,28.07461 4.0379,8.24615 11.99274,17.66734 16.62,19.68364 4.07509,1.7757 6.28884,1.67832 11.05409,-0.48625 z m 16.03761,-61.18451 c 40.49828,-3.94086 72.3016,-17.62879 76.41004,-32.88635 0.98446,-3.65603 0.8558,-4.74527 -1.01762,-8.61524 -4.09262,-8.45422 -15.4949,-15.99267 -33.09539,-21.88052 -15.99463,-5.350649 -15.18215,-5.786788 -14.33509,7.69509 0.38876,6.1875 1.15679,11.8125 1.70673,12.5 0.54995,0.6875 2.26824,1.25 3.81844,1.25 1.55019,0 3.08457,0.43045 3.40971,0.95655 0.83742,1.35496 -13.87482,24.54345 -15.57191,24.54345 -1.53546,0 -15.09124,-24.38353 -14.2829,-25.69146 0.27484,-0.4447 2.06227,-0.80854 3.97207,-0.80854 2.24654,0 3.68704,-0.55943 4.08047,-1.5847 0.9547,-2.48789 -1.51063,-23.687245 -2.91379,-25.055702 -2.18196,-2.127998 -24.85644,-3.68416 -43.25708,-2.968757 -22.44255,0.87255 -24.59585,1.299111 -25.81899,5.114667 -1.1773,3.672572 -1.49127,54.180292 -0.37729,60.694152 0.58362,3.4126 1.35567,4.87485 2.8191,5.33932 7.32731,2.3256 37.07331,3.0893 54.4535,1.39804 z m 9.42343,-87.776773 c 3.8e-4,-3.516024 -5.77996,-19.744804 -9.78832,-27.481523 -6.88209,-13.283424 -16.15117,-20.663014 -24.08432,-19.174748 -4.9815,0.934537 -14.70801,11.112413 -18.97335,19.853839 -4.63208,9.493012 -10.71898,27.742934 -9.61998,28.842891 0.16447,0.164612 14.28654,0.299294 31.38237,0.299294 h 31.08334 z"
         id="path1004"
         inkscape:connector-curvature="0" />
      <path
         style="fill:#1163c5"
         d="m 329.28756,165.78066 c -14.62586,-4.81329 -27.92435,-22.95295 -34.54768,-47.12439 -1.43173,-5.225 -3.13171,-11.28562 -3.77773,-13.46805 l -1.17459,-3.96806 -10.85575,-2.80377 c -26.51863,-6.84912 -44.87166,-17.79126 -51.77999,-30.87142 -3.21281,-6.0831 -3.28458,-17.56277 -0.14686,-23.48954 2.90855,-5.49387 9.8893,-12.53272 16.83699,-16.9771 l 5.6878,-3.638444 -0.61667,-4.499106 c -0.58671,-4.280513 -0.50757,-4.47355 1.6289,-3.973116 1.23507,0.289294 7.19558,1.300959 13.24558,2.248144 6.05,0.947185 11.32921,2.010481 11.73157,2.36288 0.69769,0.611054 -15.54366,21.257342 -17.20636,21.873022 -0.43883,0.1625 -1.27562,-1.075 -1.85952,-2.75 -1.34611,-3.86145 -3.66138,-3.91877 -8.76565,-0.21704 -5.44973,3.95226 -9.97768,9.36182 -11.37173,13.58583 -3.35794,10.17464 8.98348,22.49494 30.80204,30.74935 11.02306,4.17026 18.86131,5.93049 19.98572,4.48819 0.5315,-0.68176 0.51049,-4.82444 -0.0515,-10.15177 -1.41456,-13.40983 -0.24789,-46.82265 2.09502,-60 5.20444,-29.271626 12.61002,-48.047925 23.84904,-60.46744 15.11838,-16.706352 33.43271,-15.618549 47.44212,2.817885 7.45135,9.805994 15.63341,29.159104 18.82257,44.521194 1.12886,5.437681 1.27181,5.615015 5.34327,6.628719 11.87302,2.956118 28.14326,8.697921 35.79701,12.632842 10.35798,5.32521 19.50081,13.31695 22.85462,19.97721 3.43266,6.81683 3.95668,16.51021 1.22623,22.68285 -6.00142,13.56719 -25.93048,25.94683 -52.69448,32.73303 -4.95,1.25511 -9.54619,2.77515 -10.21377,3.37786 -0.66757,0.60272 -2.357,5.4964 -3.75429,10.87486 -6.65217,25.60561 -17.87645,44.26464 -30.50182,50.70562 -4.71045,2.40309 -13.91178,3.49508 -18.03012,2.13976 z m 12.7182,-12.67125 c 8.48141,-4.22647 16.18576,-16.09829 22.31007,-34.37813 3.00017,-8.9549 3.6726,-13.52382 2.13063,-14.47681 -0.46261,-0.2859 -6.20011,-0.0802 -12.75,0.45704 -7.99208,0.65558 -18.12669,0.62785 -30.81378,-0.0843 -12.66072,-0.71067 -19.2367,-0.72936 -19.90947,-0.0566 -1.37032,1.37032 5.31358,22.031 9.9693,30.81618 4.78624,9.03147 10.43726,15.61111 15.60465,18.16893 5.46294,2.70411 7.25582,2.64465 13.4586,-0.44632 z m 12.7818,-60.52001 c 31.92092,-2.78306 58.5399,-11.29399 71.78345,-22.95143 13.72768,-12.08358 9.00696,-25.41026 -12.88002,-36.3606 -8.36049,-4.18286 -24.11419,-9.6211 -27.87077,-9.6211 h -2.72996 l 0.71799,11.75 c 0.3949,6.4625 1.13012,12.5375 1.63384,13.5 0.53983,1.03152 2.06464,1.75 3.71399,1.75 1.53898,0 3.05797,0.25982 3.37552,0.57738 0.65263,0.65263 -13.36918,23.41446 -14.4269,23.41942 -0.8192,0.0038 -12.81714,-22.28489 -12.81714,-23.81057 0,-0.58603 1.6875,-1.20516 3.75,-1.37586 l 3.75,-0.31037 -0.10953,-7.54796 c -0.13338,-9.19081 -1.16994,-17.977185 -2.34518,-19.878759 -2.81335,-4.552097 -65.22695,-5.176904 -69.81713,-0.698923 -4.28922,4.184372 -4.27377,65.008612 0.0176,69.299972 2.84834,2.84834 33.06376,4.10632 54.25424,2.2588 z m -30.5,-85.955665 c 11.93408,-0.671275 21.44668,-0.648695 29.90891,0.07099 9.32734,0.793265 12.58712,0.766989 13.12654,-0.105809 1.38623,-2.242969 -4.1805,-19.344067 -10.13955,-31.148872 -4.05396,-8.030853 -11.87543,-16.23864 -17.53344,-18.399453 -3.74553,-1.430432 -5.05456,-1.503542 -8.49026,-0.474181 -5.18966,1.554861 -11.41056,7.766041 -16.68106,16.655007 -4.38973,7.403512 -12.70007,30.656212 -11.79719,33.009075 0.6382,1.663125 -0.577,1.641007 21.60605,0.393243 z"
         id="path1002"
         inkscape:connector-curvature="0" />
      <path
         style="fill:#1252a9"
         d="m 335.28756,161.12489 c 0,-3.43471 0.42353,-4.66749 1.75,-5.09374 5.57509,-1.79152 7.66384,-3.02402 11.31844,-6.67861 5.98092,-5.98092 11.79621,-16.47293 16.10495,-29.05671 2.09783,-6.12676 3.81702,-11.87196 3.82042,-12.76712 0.013,-3.41609 -2.1571,-3.8366 -14.55226,-2.81986 -14.34563,1.17673 -49.29933,-0.43172 -51.02801,-2.34813 -1.34137,-1.48705 -3.74234,-9.70898 -3.04024,-10.41108 0.28156,-0.28156 5.62408,-0.0128 11.87227,0.59735 45.29487,4.42281 95.30049,-5.53547 115.03788,-22.90902 13.72768,-12.08358 9.00696,-25.41026 -12.88002,-36.3606 -9.15851,-4.58212 -24.8258,-9.822435 -28.20194,-9.432842 l -2.70149,0.311742 0.35069,7.67992 c 0.19288,4.22396 0.64288,10.05586 1,12.95979 0.6134,4.98787 0.83185,5.31716 3.95006,5.95416 1.81541,0.37086 3.46501,0.83895 3.66578,1.04021 0.43881,0.43988 -12.75055,21.833 -13.46653,21.84267 -0.55635,0.008 -3.35741,-4.85647 -9.05671,-15.72675 l -3.80117,-7.25 h 3.39376 c 2.21714,0 3.71077,-0.60673 4.30815,-1.75 1.07616,-2.05959 -0.28236,-21.64249 -1.77347,-25.564426 -1.19218,-3.135657 -2.21399,-3.416135 -17.07056,-4.685722 -15.07533,-1.28828 -27.7905,-1.254079 -41.7848,0.112392 -7.19417,0.702473 -11.74071,0.762245 -12.34072,0.162239 -0.9472,-0.947199 -0.24855,-8.051193 0.98868,-10.053069 1.11985,-1.811965 39.45145,-3.369476 53.31003,-2.166123 8.62584,0.74899 12.42949,0.742031 13.19566,-0.02414 1.1931,-1.193104 -0.21819,-7.079482 -4.80257,-20.031151 -5.242,-14.809513 -15.03292,-27.683006 -23.17455,-30.470808 -3.68659,-1.262336 -3.9078,-1.574959 -4.19652,-5.930885 -0.29469,-4.445823 -0.21178,-4.597983 2.5,-4.588538 3.55533,0.01238 11.80978,3.839827 16.1087,7.469318 8.03772,6.786088 16.8177,23.349559 21.7444,41.020913 1.99339,7.15 3.78733,13.538915 3.98652,14.197589 0.1992,0.658674 2.29785,1.680608 4.66367,2.270964 12.02922,3.001712 28.23589,8.716622 35.91513,12.664647 10.35797,5.32521 19.5008,13.31695 22.85461,19.97721 3.43267,6.81683 3.95669,16.51021 1.22623,22.68285 -5.99955,13.56298 -25.87984,25.91579 -52.69447,32.74223 -4.95,1.26016 -9.74717,2.92595 -10.66039,3.70175 -0.91321,0.7758 -2.44407,4.63979 -3.4019,8.58665 -2.34498,9.66275 -7.8908,24.87005 -11.62385,31.87397 -6.55944,12.30676 -19.22184,22.80214 -27.5102,22.80214 -3.25217,0 -3.30366,-0.0706 -3.30366,-4.53138 z M 277.43225,98.08708 c -25.2293,-6.67221 -43.55161,-17.80183 -50.28043,-30.54211 -3.21281,-6.0831 -3.28458,-17.56277 -0.14686,-23.48954 2.90855,-5.49387 9.8893,-12.53272 16.83699,-16.9771 l 5.6878,-3.638444 -0.61667,-4.499106 c -0.58671,-4.280513 -0.50757,-4.47355 1.6289,-3.973116 1.23507,0.289294 7.19558,1.300959 13.24558,2.248144 6.05,0.947185 11.32921,2.010481 11.73157,2.36288 0.69769,0.611054 -15.54366,21.257342 -17.20636,21.873022 -0.43883,0.1625 -1.27562,-1.075 -1.85952,-2.75 -1.34611,-3.86145 -3.66138,-3.91877 -8.76565,-0.21704 -9.36685,6.79305 -13.48106,14.36604 -11.33591,20.86591 1.71408,5.19372 9.17885,12.78446 16.71904,17.00117 7.59775,4.24891 21.76131,9.65296 29.52234,11.26414 l 5.55287,1.15277 1.07081,4.99303 c 1.76662,8.2375 2.28654,8.04666 -11.7845,4.32539 z"
         id="path1000"
         inkscape:connector-curvature="0" />
      <path
         style="fill:#053c88"
         d="m 315.28756,103.54911 c -5.225,-0.50641 -9.99788,-1.10055 -10.60641,-1.32031 -1.06405,-0.38426 -3.65899,-8.64046 -2.94129,-9.35817 0.1926,-0.19259 5.68212,0.15915 12.19894,0.78166 20.01444,1.91184 53.66536,-0.78232 74.34876,-5.95252 25.63744,-6.40854 44.47098,-18.3762 46.5759,-29.59638 2.35789,-12.56864 -14.12244,-25.26814 -43.97523,-33.886675 l -8.03621,-2.320062 -1.23481,-4.840478 c -1.55914,-6.111797 -0.87239,-6.57597 7.04051,-4.758667 21.21247,4.871727 41.66537,15.075672 49.862,24.876142 18.10776,21.65088 2.80092,45.61803 -37.23216,58.29738 -5.225,1.65487 -11.3,3.32333 -13.5,3.70769 -2.2,0.38436 -5.56106,1.59203 -7.46903,2.6837 -3.17178,1.81479 -5.69956,2.01154 -29.5,2.29615 -14.31703,0.1712 -30.30597,-0.10305 -35.53097,-0.60946 z m -34.5,-5.5399 C 258.58462,92.87086 238.0146,81.84899 230.92401,71.29122 c -1.89675,-2.82422 -3.99716,-6.88721 -4.66759,-9.02887 -1.68531,-5.38365 -0.63213,-13.79859 2.36761,-18.91725 3.05763,-5.21744 11.71497,-13.48929 17.51632,-16.73636 4.26584,-2.387627 4.34302,-2.522935 3.86383,-6.774216 -0.45346,-4.023109 -0.33392,-4.302469 1.64722,-3.849343 1.17489,0.268721 6.63616,1.26582 12.13616,2.215777 5.5,0.949956 10.17016,1.873681 10.37813,2.052721 0.20798,0.179039 -3.14307,4.658878 -7.44677,9.955201 -7.1258,8.76931 -7.9383,9.46517 -9.09403,7.78853 -3.59024,-5.20843 -4.57634,-5.11242 -12.66067,1.23269 -20.10806,15.78213 -8.89909,34.47597 27.82334,46.40255 14.97708,4.86421 14.20442,4.40859 14.75109,8.69833 0.26812,2.10391 0.20881,4.10463 -0.1318,4.44604 -0.34061,0.34141 -3.31929,-0.004 -6.61929,-0.76781 z m 78,-79.438223 c -8.57496,-1.176269 -41.76408,-1.566615 -49.75,-0.585123 l -6.75,0.829594 0.0153,-3.829594 c 0.008,-2.106277 0.36938,-4.387081 0.80213,-5.068453 1.05628,-1.66313 37.39916,-3.661166 50.40031,-2.770876 14.25215,0.975956 14.86322,1.231086 16.27609,6.795539 0.65565,2.582212 0.96276,4.924266 0.68246,5.204564 -0.64097,0.64097 -4.02248,0.474259 -11.6763,-0.575651 z"
         id="path998"
         inkscape:connector-curvature="0" />
      <path
         style="fill:#063068"
         d="m 336,104 c -0.29198,-0.47243 -0.84591,-2.53828 -1.23097,-4.59078 -0.51417,-2.74078 -0.3391,-3.85065 0.65922,-4.17924 0.74762,-0.24608 8.02237,-0.93139 16.16611,-1.52292 47.78846,-3.47112 83.6932,-19.66643 83.6932,-37.75093 0,-5.64437 -1.67868,-8.79338 -7.66268,-14.3743 -8.11221,-7.56579 -16.947,-11.9241 -35.33732,-17.432345 -7.48234,-2.241104 -7.50265,-2.256687 -8.62443,-6.619803 -0.61844,-2.405377 -0.83684,-4.695013 -0.48533,-5.088081 0.3515,-0.393068 4.0075,0.133919 8.12443,1.171082 26.39136,6.648677 45.42611,18.200427 51.50458,31.256927 9.90654,21.27916 -8.27956,41.06916 -47.51925,51.71018 -4.675,1.26776 -10.74429,2.97267 -13.48732,3.78869 C 374.10196,102.65862 336.98964,105.60127 336,104 Z m 11.78756,-86.740507 c -9.25314,-0.785252 -12.97118,-1.463498 -12.9,-2.353223 0.055,-0.6875 0.1675,-2.591427 0.25,-4.230948 0.11527,-2.290851 0.73325,-3.127333 2.66939,-3.613276 2.95434,-0.74149 27.57544,1.288499 28.64713,2.361932 0.40211,0.402761 1.03666,2.644792 1.4101,4.982292 l 0.679,4.25 -3.87781,-0.146777 c -2.1328,-0.08073 -9.72781,-0.643228 -16.87781,-1.25 z"
         id="path996"
         inkscape:connector-curvature="0" />
    </g>
  </g>
  <metadata
     id="metadata3272">
    <rdf:RDF>
      <cc:Work
         rdf:about="">
        <dc:format>image/svg+xml</dc:format>
        <dc:type
           rdf:resource="http://purl.org/dc/dcmitype/StillImage" />
        <dc:title />
        <cc:license
           rdf:resource="" />
        <dc:date>Mon Oct 10 13:44:52 2011 +0000</dc:date>
        <dc:creator>
          <cc:Agent>
            <dc:title>[wmayer]</dc:title>
          </cc:Agent>
        </dc:creator>
        <dc:rights>
          <cc:Agent>
            <dc:title>FreeCAD LGPL2+</dc:title>
          </cc:Agent>
        </dc:rights>
        <dc:publisher>
          <cc:Agent>
            <dc:title>FreeCAD</dc:title>
          </cc:Agent>
        </dc:publisher>
        <dc:identifier>FreeCAD/src/Mod/Draft/Resources/icons/Draft_Arc.svg</dc:identifier>
        <dc:relation>http://www.freecadweb.org/wiki/index.php?title=Artwork</dc:relation>
        <dc:contributor>
          <cc:Agent>
            <dc:title>[agryson] Alexander Gryson</dc:title>
          </cc:Agent>
        </dc:contributor>
        <dc:subject>
          <rdf:Bag>
            <rdf:li>point</rdf:li>
            <rdf:li>dot</rdf:li>
            <rdf:li>arc</rdf:li>
            <rdf:li>curve</rdf:li>
            <rdf:li>line</rdf:li>
          </rdf:Bag>
        </dc:subject>
        <dc:description>An arc of 90° with a point at each end with a third point in the lower left where the centerpoint of the arc would be</dc:description>
      </cc:Work>
    </rdf:RDF>
  </metadata>
</svg>
